<svg width="1000" height="1000" viewBox="0 0 1000 1000" fill="none" xmlns="http://www.w3.org/2000/svg">
<path d="M365 855.12C350.3 846.82 340 832.59 331 818.26C322 803.93 308.31 784 296.1 772.36C284.86 761.63 278.51 757.17 264.69 750.07L242.59 818.46C247.43 817.09 252.7 818.92 256.72 821.94C260.74 824.96 246.81 829.04 250.01 832.94C262.23 847.75 273.76 860.23 291.29 868.05C292.14 868.43 313.72 868.79 314.58 869.15H376.78C376.957 867.74 376.821 866.308 376.382 864.957C375.943 863.605 375.211 862.367 374.24 861.33C371.73 858.54 368.22 857 365 855.12Z" fill="#E06F19"/>
<path d="M405.23 217.58H116.74C104.829 217.477 93.0584 220.162 82.3701 225.42C66.0308 233.675 53.2836 247.631 46.5401 264.65C42.6101 274.65 41.4301 284.99 41.4301 295.65V430C41.4301 437.87 41.4301 445.62 43.1401 453.38C47.1368 471.325 57.612 487.166 72.5601 497.87C80.0418 503.223 88.4604 507.127 97.3801 509.38C104.387 511.008 111.568 511.761 118.76 511.62H133.87L132.54 509.87C127.452 524.647 119.943 538.476 110.32 550.79C110.112 551.008 109.98 551.287 109.944 551.586C109.908 551.885 109.971 552.188 110.122 552.449C110.273 552.709 110.505 552.914 110.782 553.031C111.06 553.149 111.368 553.173 111.66 553.1C131.763 548.423 150.589 539.376 166.8 526.6C170.898 523.394 174.81 519.958 178.52 516.31C179.36 515.49 180.19 514.65 181.01 513.8C181.545 513.332 182.037 512.816 182.48 512.26C182.48 512.26 183.3 511.26 182.48 511.62H182.67C183.75 511.495 184.84 511.495 185.92 511.62H372.36H405.1C437.23 511.53 466.38 490.38 476.02 459.62C478.69 451.07 479.38 442.33 479.38 433.45V338.82C479.38 323.273 479.38 307.72 479.38 292.16C479.38 260.83 459.5 232.26 429.87 221.78C421.95 219.01 413.621 217.59 405.23 217.58C404.883 217.61 404.56 217.768 404.324 218.025C404.089 218.281 403.958 218.617 403.958 218.965C403.958 219.313 404.089 219.649 404.324 219.905C404.56 220.162 404.883 220.321 405.23 220.35C422.346 220.35 438.893 226.498 451.857 237.674C464.82 248.85 473.339 264.311 475.86 281.24C476.75 287.24 476.61 293.24 476.61 299.31V397.23C476.61 410.65 476.66 424.07 476.61 437.49C476.613 454.401 470.612 470.764 459.677 483.664C448.742 496.564 433.583 505.163 416.9 507.93C411.402 508.703 405.85 509.017 400.3 508.87H185.45C184.488 508.795 183.522 508.795 182.56 508.87C182.36 508.87 182.48 508.8 182.1 508.92C181.27 509.18 180.62 510.21 180.04 510.83C179.06 511.863 178.06 512.863 177.04 513.83C166.026 524.762 153.259 533.773 139.27 540.49C130.211 544.837 120.696 548.161 110.9 550.4L112.24 552.71C122.177 540.042 129.927 525.802 135.17 510.58C135.225 510.375 135.232 510.16 135.191 509.952C135.151 509.744 135.063 509.548 134.934 509.379C134.806 509.21 134.64 509.073 134.451 508.978C134.261 508.882 134.052 508.832 133.84 508.83C121.51 508.83 108.98 509.61 96.9501 506.38C78.9909 501.481 63.6331 489.805 54.1101 473.81C47.2401 462.23 44.1701 449.25 44.1701 435.81V337.19C44.1701 321.44 43.8001 305.64 44.1701 289.89C44.6499 271.281 52.3802 253.596 65.7128 240.606C79.0453 227.615 96.9252 220.346 115.54 220.35H143.78H405.18C405.528 220.327 405.855 220.175 406.096 219.923C406.336 219.67 406.473 219.337 406.48 218.988C406.486 218.639 406.361 218.301 406.13 218.04C405.898 217.779 405.577 217.615 405.23 217.58V217.58Z" fill="#E06F19"/>
<path d="M293.93 406C305.52 413.42 308.99 398 321.93 402.76C352.88 414.06 387 431.55 416.06 435.53C420.63 436.15 425.35 436.42 429.77 435.12C438.77 432.47 444.63 424.05 449.77 416.19L472.97 380.6C476.8 374.73 481.52 368.29 488.48 367.5C496.97 366.5 504.02 375.06 505.06 383.5C506.1 391.94 502.97 400.32 500.63 408.5C494.13 431.22 492.75 456.78 477.38 474.73C467.38 486.37 452.9 493.02 438.49 498.21C411.08 508.07 380.55 513.86 353.03 504.31C345.82 501.8 338.49 498.22 330.93 499.31" fill="#E06F19"/>
<path d="M360.52 457.93L333.44 455.67C335.54 466.38 335.93 477.36 337.75 488.12C338.418 492.182 339.374 496.193 340.61 500.12C344.79 501.19 348.91 502.96 353 504.38C368.54 509.77 385.05 510.27 401.41 507.91C384.826 493.903 370.964 476.96 360.52 457.93V457.93Z" fill="black"/>
<path d="M259 746.55C254.29 743.36 245.61 738.8 243.17 733.36C241.17 728.88 244.27 723.89 247.23 719.97L214.44 714.48C209.75 722.32 204.74 730.48 196.85 735.12C186.4 741.24 174.66 744.69 164.51 751.54C141.6 767.01 140.41 796.2 141.51 821.22C141.983 832.275 143.347 843.274 145.59 854.11C146.717 859.53 148.05 864.893 149.59 870.2C150.12 872.02 152.43 876.71 153.71 880.4C157.815 876.873 161.712 873.11 165.38 869.13H277.56C279.9 850.98 279.56 855.62 285.11 842.71C293.7 822.61 302.74 784.03 286.16 765.08C279 756.83 268 752.59 259 746.55Z" fill="#E06F19"/>
<path d="M932.13 729C928.36 721.14 924.37 713.38 920.39 705.65L890.91 648.46C886.76 640.46 882.49 632.21 875.91 626C862.91 613.77 843.5 611.59 825.66 612.2C817.76 612.48 809.46 613.09 802.34 609.68C797.64 607.43 793.9 603.61 790.53 599.68C782.186 589.879 775.507 578.775 770.76 566.81L731.69 601.59C738.33 602.08 742.83 607.24 746 613.44C746.564 614.589 746.877 615.844 746.918 617.123C746.959 618.402 746.726 619.675 746.236 620.857C745.746 622.039 745.009 623.103 744.075 623.978C743.141 624.853 742.032 625.518 740.82 625.93C721.01 632.64 701.19 641.26 689.66 658.33C677.6 676.19 677.43 699.25 677.66 720.8C677.76 729.28 677.88 737.8 678.77 746.23H818.27C837.269 766.924 862.075 781.396 889.44 787.75C879.629 775.282 871.998 761.244 866.87 746.23H885.16C902.365 746.243 919.014 740.135 932.13 729V729Z" fill="#E06F19"/>
<path d="M932.13 729C928.36 721.14 924.37 713.38 920.39 705.65L890.91 648.46C886.76 640.46 882.49 632.21 875.91 626C862.91 613.77 843.5 611.59 825.66 612.2C817.76 612.48 809.46 613.09 802.34 609.68C798.948 607.951 795.898 605.62 793.34 602.8C783.47 607.39 774.34 613.8 765.58 620.35C765.877 623.942 764.805 627.514 762.58 630.35C761.387 627.049 759.288 624.152 756.524 621.99C753.759 619.829 750.441 618.491 746.95 618.13C746.799 619.878 746.14 621.544 745.055 622.923C743.969 624.302 742.504 625.333 740.84 625.89C721.03 632.6 701.21 641.22 689.68 658.29C677.62 676.15 677.45 699.21 677.68 720.76C677.78 729.24 677.9 737.76 678.79 746.19H818.29C837.288 766.884 862.095 781.356 889.46 787.71C879.649 775.242 872.018 761.203 866.89 746.19H885.18C902.373 746.209 919.014 740.116 932.13 729V729Z" fill="white"/>
<path d="M705.53 698C706.641 714.341 710.253 730.415 716.24 745.66C716.88 747.29 719.56 746.58 718.9 744.92C712.988 729.914 709.413 714.09 708.3 698C708.18 696.23 705.41 696.22 705.53 698Z" fill="black"/>
<path d="M856.22 700.86L876.67 745.18C877.42 746.8 879.8 745.39 879.06 743.79L858.61 699.46C857.87 697.84 855.48 699.25 856.22 700.86Z" fill="black"/>
<path d="M933.32 728.27C926.78 714.63 919.69 701.27 912.76 687.81L892.11 647.74C889.11 641.99 886.11 636.2 882.23 631.03C878.683 626.279 874.247 622.261 869.17 619.2C859.04 613.2 847.02 611.2 835.4 610.77C828.31 610.53 821.22 611.3 814.15 610.94C810.391 610.848 806.684 610.037 803.23 608.55C799.871 606.865 796.854 604.573 794.33 601.79C794.108 601.582 793.826 601.45 793.524 601.412C793.222 601.374 792.916 601.433 792.65 601.58C785.811 604.884 779.27 608.771 773.1 613.2C771.55 614.28 770.02 615.37 768.49 616.48L766.21 618.15C765.63 618.58 764.62 619.08 764.32 619.78C764.168 620.568 764.141 621.374 764.24 622.17C764.081 624.778 763.152 627.28 761.57 629.36L763.88 629.97C762.586 626.382 760.303 623.233 757.295 620.888C754.286 618.543 750.675 617.098 746.88 616.72C746.08 616.64 745.57 617.43 745.49 618.11C745.371 619.234 745.005 620.317 744.419 621.284C743.833 622.25 743.041 623.075 742.1 623.7C740.1 625.04 737.33 625.58 735.04 626.4C730.23 628.14 725.46 630.02 720.81 632.15C711.76 636.3 703.05 641.53 695.92 648.55C688.644 655.832 683.327 664.834 680.46 674.72C677.46 684.87 676.52 695.56 676.27 706.11C676.13 712.31 676.21 718.53 676.27 724.73C676.38 731.89 676.58 739.05 677.33 746.17C677.338 746.534 677.485 746.88 677.743 747.137C678 747.395 678.346 747.542 678.71 747.55H812.6C814.411 747.665 816.228 747.665 818.04 747.55H818.28L817.28 747.15C832.182 763.298 850.62 775.777 871.15 783.61C876.995 785.819 882.986 787.62 889.08 789C889.371 789.068 889.677 789.041 889.952 788.923C890.227 788.805 890.456 788.601 890.607 788.343C890.758 788.085 890.822 787.785 890.791 787.487C890.759 787.19 890.632 786.91 890.43 786.69C880.791 774.386 873.28 760.555 868.21 745.77L866.88 747.52H884.08C894.879 747.603 905.574 745.398 915.46 741.05C921.834 738.177 927.775 734.428 933.11 729.91C934.47 728.77 932.5 726.82 931.11 727.91C921.739 735.794 910.506 741.148 898.48 743.46C890.71 744.95 882.84 744.71 874.97 744.71H866.84C866.628 744.712 866.419 744.763 866.229 744.858C866.039 744.953 865.873 745.09 865.744 745.259C865.615 745.427 865.526 745.623 865.483 745.831C865.441 746.039 865.447 746.254 865.5 746.46C870.733 761.687 878.484 775.928 888.43 788.59L889.78 786.28C876.234 783.186 863.243 778.033 851.26 771C845.251 767.484 839.518 763.515 834.11 759.13C831.41 756.95 828.797 754.667 826.27 752.28C825.01 751.1 823.77 749.88 822.56 748.65C821.97 748.05 821.39 747.46 820.82 746.85C820.296 746.157 819.684 745.535 819 745C818.332 744.785 817.625 744.723 816.93 744.82H687.39C684.68 744.82 681.85 744.59 679.14 744.82H678.78L680.16 746.2C678.92 734.27 678.91 722.2 679.01 710.2C679.11 699.5 679.7 688.69 682.39 678.29C684.853 668.189 689.921 658.91 697.09 651.38C704.09 644.24 712.7 639.01 721.7 634.83C726.92 632.41 732.3 630.34 737.7 628.43C740.25 627.54 742.89 626.88 744.94 625.02C746.859 623.219 748.045 620.772 748.27 618.15L746.89 619.53C750.076 619.891 753.1 621.131 755.623 623.11C758.146 625.09 760.07 627.731 761.18 630.74C761.48 631.61 762.8 632.24 763.49 631.35C765.967 628.239 767.197 624.318 766.94 620.35L766.26 621.54C775.07 615.03 784.06 608.65 794.02 604L792.34 603.78C797 608.6 802.4 612.09 809.1 613.2C815.48 614.26 821.95 613.63 828.39 613.52C840.03 613.32 852.21 614.3 862.95 619.14C868.394 621.543 873.281 625.051 877.3 629.44C881.56 634.15 884.74 639.73 887.69 645.33C894.59 658.4 901.25 671.6 908.02 684.73C915.73 699.68 923.63 714.54 930.9 729.73C931.7 731.27 934.09 729.87 933.32 728.27V728.27Z" fill="black"/>
<path d="M359.25 444.19C353.69 429.3 344.44 415.29 330.96 406.87C316.05 397.56 296.63 395.34 284.59 382.54C279.339 376.925 276.024 369.776 275.13 362.14C274.57 357.22 276.03 355.65 280.06 353.52C267.54 348.93 256.79 339.94 245.56 332.75L229.5 340.38C232.44 347.894 234.811 355.619 236.59 363.49C237.75 368.6 238.65 373.89 237.83 379.07C236.93 384.72 234.03 389.84 230.83 394.55C219 411.75 202 425.24 192.1 443.65C181.35 463.73 180.3 487.52 182.97 510.25H370.18C370.79 503.87 370.05 497.08 369.18 490.72C367.05 475 364.82 459.08 359.25 444.19V444.19Z" fill="#E06F19"/>
<path d="M249.3 490.14C249.617 496.698 250.722 503.195 252.59 509.49C252.687 509.844 252.92 510.145 253.239 510.327C253.558 510.509 253.936 510.557 254.29 510.46C254.644 510.363 254.945 510.13 255.127 509.811C255.309 509.492 255.357 509.114 255.26 508.76C253.452 502.704 252.378 496.452 252.06 490.14C251.98 488.37 249.21 488.36 249.3 490.14Z" fill="black"/>
<path d="M270 368.65C272.426 370.604 275.207 372.071 278.19 372.97C276.627 369.54 275.614 365.885 275.19 362.14C274.63 357.22 276.09 355.65 280.12 353.52C273.477 350.899 267.166 347.502 261.32 343.4L246.92 345.66C255.27 352.56 261.32 362.05 270 368.65Z" fill="black"/>
<path d="M967.24 347.22C957.37 332.02 944.79 318.52 932.35 305.22C914.26 285.9 906.23 260.45 882.63 248.47C869.854 242 855.977 237.987 841.72 236.64C837.29 236.23 832.72 236.06 828.55 234.64C811.93 229.07 796.34 213.44 782.55 202.58L749.24 231.84C760.24 229.57 772.82 234.54 777.17 245.23C778.913 249.177 779.113 253.633 777.73 257.72C775.87 262.62 771.36 265.93 767.11 269C759.6 274.42 751.94 280.28 747.76 288.54C744.48 295.01 743.63 302.4 742.83 309.61L734.63 383.51C734.49 384.76 734.36 386.01 734.26 387.26H835.35C854.347 407.958 879.154 422.434 906.52 428.79C896.73 416.324 889.116 402.293 884 387.29H902.29C915.765 387.281 928.973 383.53 940.441 376.455C951.909 369.38 961.187 359.259 967.24 347.22V347.22Z" fill="#E06F19"/>
<path d="M767.13 234.41C772.13 228.22 777.13 221.41 779.56 214.95L764.7 218.32L749.27 231.87C755.338 230.644 761.644 231.541 767.13 234.41V234.41Z" fill="black"/>
<path d="M213 701.91C236.4 725.35 297.76 713.77 284.87 674.91C279.48 658.67 274.97 637.09 259.94 627.54C254.142 623.943 247.553 621.815 240.746 621.343C233.939 620.871 227.119 622.068 220.88 624.83C195.12 636.28 192.38 674.54 209.28 697.53C210.408 699.082 211.651 700.546 213 701.91V701.91Z" fill="#E06F19"/>
<path d="M249.81 636.41C252.36 646.51 253.56 649.06 246.5 656.72C244.72 663.85 240.33 669.31 243.34 676.48C246.169 682.782 249.608 688.79 253.61 694.42C257.21 699.76 262.15 705.42 264.28 711.5C264.783 712.779 265.024 714.147 264.988 715.521C264.952 716.896 264.64 718.249 264.07 719.5C261.58 724.33 254.9 725.5 250.07 726.57C244.399 727.865 238.615 728.605 232.8 728.78C221.14 729.142 209.515 727.327 198.52 723.43C191.058 720.788 183.977 717.174 177.46 712.68C176.42 712.056 175.537 711.2 174.88 710.18C173.97 708.48 174.38 706.4 174.88 704.52C177.18 694.833 179.75 685.207 182.59 675.64C187.43 659.36 193.9 642.13 208.05 632.72C209.179 632.096 210.174 631.257 210.98 630.25C211.449 629.426 211.838 628.559 212.14 627.66C214.4 622.4 220.47 619.97 226.08 618.86C241.27 615.86 252.51 622.63 267.75 625.4C270.64 625.93 270.65 628.55 269.53 630.74C267.05 635.59 261.66 636.93 257.19 639.25C252.49 641.69 247.53 643.88 242.19 644.45" fill="black"/>
<path d="M248.47 636.78C249.47 640.69 251.34 645.36 249.93 649.39C249.088 651.414 247.87 653.26 246.34 654.83C245.867 655.269 245.468 655.782 245.16 656.35C244.87 657.06 244.75 657.88 244.51 658.61C244.02 660.11 243.44 661.61 242.88 663.05C241.766 665.662 241.107 668.445 240.93 671.28C240.87 674.46 242.11 677.28 243.46 680.12C246.485 686.202 250.032 692.01 254.06 697.48C255.89 700.02 257.8 702.48 259.49 705.15C261.28 707.662 262.601 710.478 263.39 713.46C263.733 714.803 263.705 716.213 263.309 717.541C262.912 718.869 262.163 720.065 261.14 721C259.251 722.467 257.057 723.492 254.72 724C241.76 727.614 228.166 728.355 214.89 726.17C208.074 725.04 201.404 723.162 195 720.57C191.867 719.287 188.811 717.821 185.85 716.18C182.962 714.673 180.196 712.941 177.58 711C176.964 710.591 176.474 710.019 176.163 709.349C175.852 708.678 175.734 707.934 175.82 707.2C176.051 705.446 176.422 703.714 176.93 702.02C177.783 698.526 178.667 695.043 179.58 691.57C181.33 684.94 183.18 678.33 185.24 671.79C188.6 661.13 192.79 650.24 200.15 641.65C201.927 639.564 203.892 637.646 206.02 635.92C208.15 634.2 211.19 632.92 212.5 630.42C213.12 629.24 213.45 627.95 214.17 626.82C214.912 625.685 215.862 624.701 216.97 623.92C219.118 622.435 221.521 621.36 224.06 620.75C229.949 619.245 236.101 619.085 242.06 620.28C248.06 621.41 253.92 623.42 259.84 624.99C261.33 625.39 262.84 625.76 264.33 626.09C265.14 626.27 265.95 626.44 266.77 626.6C267.37 626.71 268.26 626.74 268.67 627.3C269.87 628.95 267.35 631.8 266.26 632.8C264.282 634.392 262.065 635.661 259.69 636.56C257.02 637.76 254.45 639.18 251.76 640.35C248.744 641.705 245.547 642.614 242.27 643.05C240.53 643.26 240.5 646.05 242.27 645.82C249.15 645.02 254.9 641.74 261.09 638.95C265.46 636.95 271.62 633.85 271.66 628.22C271.676 627.653 271.576 627.09 271.367 626.564C271.157 626.037 270.841 625.56 270.44 625.16C269.35 624.16 267.79 624 266.38 623.71C262.97 623.01 259.6 622.09 256.26 621.12C250.13 619.35 244.01 617.47 237.63 616.89C231.334 616.234 224.974 617.152 219.12 619.56C216.596 620.589 214.363 622.224 212.62 624.32C211.729 625.431 211.014 626.672 210.5 628C209.868 629.482 208.754 630.708 207.34 631.48C197.24 638.25 190.93 648.84 186.46 659.91C184.14 665.67 182.29 671.61 180.55 677.58C178.35 685.1 176.317 692.67 174.45 700.29C173.71 703.29 172.23 707.04 173.45 710.13C174.105 711.561 175.17 712.765 176.51 713.59C177.95 714.59 179.46 715.59 180.97 716.51C186.948 720.158 193.323 723.114 199.97 725.32C214.238 730.048 229.424 731.323 244.28 729.04C247.49 728.54 250.68 727.86 253.84 727.04C256.453 726.496 258.963 725.545 261.28 724.22C263.545 722.879 265.226 720.739 265.99 718.22C266.89 715.01 265.99 711.74 264.71 708.78C261.98 702.62 257.35 697.46 253.64 691.89C251.64 688.89 249.71 685.89 247.96 682.68C246.21 679.47 244.17 676.2 243.75 672.68C243.38 669.55 244.46 666.52 245.54 663.68C246.07 662.27 246.63 660.86 247.1 659.43C247.265 658.699 247.482 657.98 247.75 657.28C248.197 656.656 248.699 656.074 249.25 655.54C250.8 653.793 251.983 651.752 252.73 649.54C253.236 647.578 253.298 645.528 252.91 643.54C252.51 640.97 251.77 638.45 251.13 635.93C250.7 634.21 248.03 634.93 248.46 636.67L248.47 636.78Z" fill="black"/>
<path d="M269.65 661H268.51C268.206 661.013 267.913 661.117 267.67 661.3C267.503 661.441 267.359 661.606 267.24 661.79C267.108 661.957 266.984 662.13 266.87 662.31C266.533 662.841 266.34 663.451 266.31 664.08C266.296 664.703 266.493 665.313 266.87 665.81C267.11 666.108 267.415 666.347 267.761 666.509C268.108 666.67 268.488 666.749 268.87 666.74C269.502 666.724 270.113 666.512 270.62 666.134C271.127 665.756 271.504 665.231 271.7 664.63C271.731 664.539 271.751 664.445 271.76 664.35C271.805 664.143 271.825 663.932 271.82 663.72C271.817 663.413 271.763 663.109 271.66 662.82C271.515 662.454 271.309 662.116 271.05 661.82C270.843 661.584 270.6 661.381 270.33 661.22C270.008 661.038 269.627 660.992 269.27 661.09C269.097 661.135 268.934 661.214 268.792 661.322C268.649 661.43 268.53 661.565 268.44 661.72C268.263 662.039 268.216 662.413 268.309 662.766C268.403 663.118 268.629 663.421 268.94 663.61L269.11 663.73L268.83 663.51C268.936 663.596 269.034 663.694 269.12 663.8L268.9 663.52C268.98 663.634 269.05 663.755 269.11 663.88L268.97 663.55C269.03 663.691 269.07 663.839 269.09 663.99L269.04 663.62C269.055 663.756 269.055 663.894 269.04 664.03L269.09 663.67C269.071 663.793 269.037 663.914 268.99 664.03L269.13 663.7C269.08 663.83 269.009 663.952 268.92 664.06L269.14 663.78C269.05 663.89 268.95 663.99 268.84 664.08L269.12 663.86C268.999 663.959 268.864 664.04 268.72 664.1L269.05 663.96C268.918 664.012 268.78 664.049 268.64 664.07H269.01H268.65H269.02C268.902 664.06 268.787 664.03 268.68 663.98L269.01 664.12C268.936 664.088 268.866 664.047 268.8 664L269.08 664.22L268.91 664.05L269.12 664.33C269.072 664.223 269.032 664.113 269 664L269.14 664.33C269.083 664.225 269.036 664.114 269 664V664.37C268.985 664.23 268.985 664.09 269 663.95V664.32C269.03 664.148 269.08 663.98 269.15 663.82L269.01 664.15C269.188 663.793 269.406 663.457 269.66 663.15L268.47 663.83H269.61C269.983 663.833 270.342 663.689 270.61 663.43C270.87 663.162 271.017 662.804 271.02 662.43C271.024 662.246 270.992 662.063 270.925 661.892C270.858 661.721 270.759 661.564 270.631 661.431C270.504 661.298 270.352 661.192 270.184 661.118C270.015 661.044 269.834 661.004 269.65 661V661Z" fill="black"/>
<path d="M278.19 658.58C278.873 661.775 279.837 664.904 281.07 667.93C281.995 670.549 283.22 673.052 284.72 675.39C285.72 676.84 288.12 675.46 287.1 673.99C285.68 671.798 284.519 669.449 283.64 666.99C282.456 664.038 281.526 660.99 280.86 657.88C280.51 656.13 277.86 656.88 278.19 658.61V658.58Z" fill="black"/>
<path d="M265.22 655.14C265.512 654.941 265.816 654.761 266.13 654.6L266.49 654.42C266.49 654.42 267 654.19 266.76 654.29C267.354 654.041 267.97 653.85 268.6 653.72C268.748 653.68 268.898 653.65 269.05 653.63C269.11 653.63 269.63 653.55 269.34 653.63C269.65 653.63 269.96 653.57 270.27 653.56C270.58 653.55 270.89 653.56 271.2 653.56H271.73H271.99C271.84 653.56 271.85 653.56 271.99 653.56C272.348 653.643 272.724 653.586 273.04 653.4C273.356 653.214 273.589 652.913 273.69 652.56C273.781 652.202 273.728 651.822 273.54 651.504C273.353 651.186 273.047 650.954 272.69 650.86C269.591 650.342 266.409 650.99 263.76 652.68C263.603 652.772 263.466 652.894 263.356 653.039C263.246 653.184 263.166 653.349 263.12 653.525C263.074 653.701 263.063 653.884 263.088 654.064C263.113 654.245 263.173 654.418 263.265 654.575C263.357 654.732 263.479 654.869 263.624 654.979C263.769 655.089 263.934 655.169 264.11 655.215C264.286 655.261 264.469 655.272 264.649 655.247C264.83 655.222 265.003 655.162 265.16 655.07L265.22 655.14Z" fill="black"/>
<path d="M235.13 683C239.59 687.47 251.3 685.26 248.84 677.86C247.84 674.76 246.95 670.64 244.08 668.86C242.974 668.174 241.718 667.768 240.419 667.677C239.121 667.587 237.82 667.814 236.63 668.34C231.72 670.52 231.19 677.82 234.42 682.21C234.634 682.493 234.872 682.757 235.13 683V683Z" fill="#E06F19"/>
<path d="M387.42 576.46H98.92C87.0081 576.352 75.2367 579.037 64.55 584.3C48.2095 592.545 35.4635 606.501 28.73 623.52C24.79 633.52 23.62 643.87 23.62 654.52V788.89C23.62 796.75 23.62 804.51 25.33 812.26C29.3136 830.209 39.7874 846.053 54.74 856.75C62.2252 862.104 70.6471 866.008 79.57 868.26C86.5923 869.897 93.791 870.652 101 870.51H116.1L114.77 868.76C109.664 883.536 102.138 897.361 92.5 909.67C92.2798 909.886 92.1378 910.17 92.0964 910.475C92.0549 910.781 92.1164 911.092 92.2711 911.359C92.4258 911.626 92.6649 911.834 92.9507 911.95C93.2366 912.066 93.553 912.084 93.85 912C119.084 906.089 142.209 893.359 160.7 875.2C161.54 874.37 162.38 873.53 163.2 872.68C163.734 872.214 164.223 871.699 164.66 871.14C164.66 871.14 165.49 870.14 164.66 870.51H164.85C165.929 870.38 167.021 870.38 168.1 870.51H354.55H387.28C419.41 870.41 448.57 849.26 458.2 818.51C460.88 809.96 461.56 801.22 461.56 792.33V697.69C461.56 682.137 461.56 666.587 461.56 651.04C461.56 619.71 441.69 591.13 412.05 580.65C404.133 577.883 395.807 576.467 387.42 576.46C387.073 576.49 386.75 576.648 386.514 576.905C386.279 577.161 386.148 577.497 386.148 577.845C386.148 578.193 386.279 578.529 386.514 578.785C386.75 579.042 387.073 579.201 387.42 579.23C404.527 579.238 421.063 585.388 434.017 596.562C446.971 607.736 455.481 623.189 458 640.11C458.89 646.11 458.76 652.11 458.76 658.18V756.11V796.36C458.759 813.27 452.757 829.631 441.823 842.53C430.888 855.429 415.731 864.03 399.05 866.8C393.552 867.573 388 867.887 382.45 867.74H167.63C166.668 867.67 165.702 867.67 164.74 867.74C164.54 867.74 164.66 867.67 164.28 867.74C163.45 868 162.8 869.04 162.22 869.65C161.22 870.65 160.22 871.65 159.22 872.65C148.212 883.589 135.444 892.601 121.45 899.31C112.392 903.662 102.876 906.989 93.08 909.23L94.43 911.54C104.357 898.862 112.106 884.621 117.36 869.4C117.413 869.195 117.419 868.98 117.376 868.771C117.334 868.563 117.245 868.368 117.116 868.199C116.987 868.03 116.821 867.893 116.631 867.798C116.441 867.703 116.232 867.653 116.02 867.65C103.69 867.65 91.16 868.44 79.13 865.21C61.1701 860.307 45.8127 848.628 36.29 832.63C29.5974 821.097 26.1618 807.963 26.35 794.63V696.06C26.35 680.31 25.99 664.51 26.35 648.76C26.8298 630.154 34.5591 612.472 47.8898 599.483C61.2204 586.494 79.0977 579.227 97.71 579.23H125.96H387.36C387.708 579.209 388.036 579.058 388.278 578.806C388.52 578.555 388.658 578.222 388.666 577.873C388.673 577.524 388.549 577.185 388.319 576.923C388.088 576.662 387.767 576.496 387.42 576.46V576.46Z" fill="black"/>
<path d="M778.63 571.18C762.03 599.83 699.75 604.37 702.25 563.55C703.25 546.47 702.13 524.45 714.25 511.37C718.924 506.413 724.738 502.672 731.185 500.471C737.633 498.27 744.52 497.676 751.25 498.74C779.09 503.2 791.55 539.48 781.1 566.04C780.408 567.813 779.582 569.532 778.63 571.18Z" fill="#E06F19"/>
<path d="M733.35 533.36C731.497 532.298 729.926 530.808 728.767 529.014C727.608 527.221 726.896 525.175 726.69 523.05C723.562 525.162 720.08 526.697 716.41 527.58C714.64 528 712.65 528.24 711.14 527.23C709.63 526.22 709.3 523.53 710.95 522.76C707.59 524.76 704.4 528.01 703.69 531.83C701.742 530.66 700.147 528.986 699.071 526.985C697.996 524.984 697.481 522.73 697.58 520.46C697.838 518.364 698.702 516.388 700.067 514.775C701.431 513.162 703.235 511.983 705.26 511.38C702.54 510.9 701.16 507.47 702 504.84C702.84 502.21 705.21 500.36 707.66 499.09C713.352 496.179 719.916 495.467 726.1 497.09C723.99 497.44 722.55 494.52 723.49 492.6C724.43 490.68 726.65 489.78 728.75 489.36C739.18 487.26 749.69 492.81 757.75 499.71C756.66 497.65 759.1 495.09 761.42 495.35C763.74 495.61 765.42 497.64 766.42 499.76C767.42 501.88 767.87 504.22 769.06 506.23C772.93 506.15 776.53 508.13 779.75 510.23C782.997 512.379 786.091 514.752 789.01 517.33C791.343 519.212 793.306 521.511 794.8 524.11C795.536 525.413 795.974 526.862 796.083 528.354C796.192 529.846 795.969 531.344 795.43 532.74C794.21 535.47 791.02 537.37 788.15 536.55C790.1 538.07 791.71 540.34 791.55 542.8C791.39 545.26 788.75 547.53 786.46 546.61C788.31 548.05 788.51 550.86 787.69 553.06C786.87 555.26 785.26 557.06 783.93 558.97C782.045 561.693 780.688 564.746 779.93 567.97C779.65 569.656 779.194 571.309 778.57 572.9C778.252 573.694 777.74 574.396 777.082 574.943C776.424 575.49 775.639 575.863 774.8 576.03C772.65 576.29 770.8 574.64 769.38 572.97C766.941 570.025 765.033 566.678 763.74 563.08C762.74 560.22 762.07 557.19 760.56 554.55C759.05 551.91 756.38 549.65 753.34 549.74C752.198 549.939 751.035 549.989 749.88 549.89C748.655 549.473 747.585 548.696 746.81 547.66L740.76 541" fill="black"/>
<path d="M734.05 532.17C732.4 531.233 730.996 529.917 729.953 528.332C728.91 526.746 728.258 524.936 728.05 523.05C728.045 522.808 727.977 522.571 727.854 522.362C727.73 522.154 727.554 521.981 727.343 521.861C727.132 521.742 726.894 521.678 726.652 521.678C726.409 521.678 726.171 521.741 725.96 521.86C723.109 523.776 719.959 525.205 716.64 526.09C715.27 526.45 713.48 526.94 712.13 526.23C711.42 525.86 710.68 524.48 711.62 523.96L710.22 521.57C706.54 523.76 703.22 527.15 702.32 531.47L704.32 530.64C702.683 529.679 701.32 528.314 700.362 526.675C699.404 525.036 698.884 523.178 698.85 521.28C698.94 519.333 699.635 517.462 700.838 515.928C702.04 514.394 703.691 513.273 705.56 512.72C705.844 512.63 706.092 512.453 706.268 512.213C706.444 511.973 706.538 511.683 706.538 511.385C706.538 511.087 706.444 510.798 706.268 510.558C706.092 510.317 705.844 510.14 705.56 510.05C703.56 509.61 702.74 507.34 703.18 505.5C703.79 502.96 706.31 501.29 708.49 500.19C713.807 497.533 719.909 496.897 725.66 498.4L726.03 495.69C724.9 495.8 724.32 494.49 724.55 493.49C724.87 492.15 726.46 491.41 727.64 491.03C730.997 490.085 734.535 489.985 737.94 490.74C744.94 492.13 751.33 496.08 756.75 500.67C756.971 500.968 757.302 501.167 757.67 501.221C758.038 501.275 758.412 501.182 758.71 500.96C759.008 500.739 759.207 500.408 759.261 500.04C759.315 499.673 759.221 499.298 759 499C758.57 498 759.79 497 760.59 496.79C761.92 496.4 763.22 497.41 764.03 498.36C766.03 500.77 766.42 504.21 767.94 506.92C768.064 507.129 768.239 507.302 768.45 507.422C768.66 507.543 768.898 507.608 769.14 507.61C773.14 507.61 776.68 509.78 779.91 511.97C783.388 514.288 786.66 516.901 789.69 519.78C792.41 522.38 794.96 525.67 794.82 529.63C794.71 532.8 792.03 536.09 788.6 535.24C787.36 534.93 786.11 536.63 787.25 537.55C788.76 538.77 790.38 540.55 790.25 542.63C790.15 544.27 788.6 545.87 786.9 545.3C786.608 545.227 786.3 545.251 786.022 545.369C785.745 545.486 785.513 545.691 785.362 545.951C785.211 546.212 785.148 546.515 785.184 546.814C785.22 547.113 785.352 547.392 785.56 547.61C787.46 549.22 786.96 551.92 785.88 553.87C784.55 556.26 782.66 558.27 781.35 560.68C780.033 563.124 779.074 565.744 778.5 568.46C778.04 570.58 777.41 574.62 774.5 574.7C771.99 574.77 769.96 571.55 768.74 569.7C767.173 567.401 765.916 564.907 765 562.28C763.33 557.46 762.14 551.59 757 549.16C755.801 548.571 754.475 548.29 753.14 548.34C751.44 548.43 750.14 548.9 748.76 547.63C746.22 545.31 744 542.51 741.68 539.98C740.47 538.66 738.52 540.62 739.68 541.98C741.97 544.48 744.17 547.16 746.62 549.51C747.587 550.54 748.887 551.195 750.29 551.36C751.78 551.48 753.29 550.91 754.72 551.31C757.52 552.05 759.3 554.75 760.32 557.31C761.49 560.24 762.18 563.31 763.48 566.19C764.749 569.007 766.402 571.635 768.39 574C770.13 576.07 772.63 578 775.51 577.36C778.39 576.72 779.9 573.91 780.59 571.31C781.41 568.19 781.99 565.18 783.53 562.31C785.15 559.31 787.81 556.77 789 553.49C789.94 550.87 789.63 547.58 787.4 545.7L786.16 548C789.04 549 792 546.83 792.8 544.06C793.74 540.82 791.62 537.59 789.2 535.64L787.85 537.95C789.322 538.274 790.856 538.163 792.266 537.63C793.676 537.097 794.9 536.166 795.79 534.95C797.89 532.22 797.99 528.43 796.86 525.28C795.61 521.82 793.08 519.09 790.38 516.68C787.345 513.959 784.117 511.463 780.72 509.21C777.23 506.89 773.42 504.85 769.13 504.86L770.32 505.54C768.14 501.67 767.82 496.16 763.06 494.34C759.33 492.91 754.83 496.46 756.61 500.42L758.78 498.74C753.35 494.15 747.13 490.15 740.15 488.41C736.778 487.543 733.27 487.335 729.82 487.8C726.89 488.21 723.39 489.23 722.15 492.24C721.06 494.9 722.91 498.8 726.15 498.48C727.61 498.34 728.15 496.18 726.52 495.76C719.52 493.96 711.31 494.86 705.22 498.99C702.69 500.71 700.4 503.31 700.43 506.54C700.43 509.31 702.12 512.12 704.94 512.75V510.08C702.55 510.795 700.434 512.221 698.875 514.168C697.315 516.115 696.386 518.491 696.21 520.98C696.188 523.403 696.803 525.79 697.995 527.899C699.187 530.009 700.913 531.768 703 533C703.183 533.098 703.385 533.154 703.592 533.164C703.799 533.174 704.005 533.138 704.196 533.058C704.388 532.979 704.559 532.858 704.698 532.704C704.837 532.551 704.94 532.368 705 532.17C705.76 528.53 708.52 525.78 711.63 523.93C711.914 523.729 712.113 523.429 712.186 523.089C712.26 522.748 712.203 522.393 712.027 522.092C711.851 521.792 711.569 521.569 711.236 521.466C710.903 521.364 710.544 521.39 710.23 521.54C709.48 521.997 708.913 522.703 708.63 523.534C708.347 524.366 708.365 525.27 708.68 526.09C709.05 527.051 709.708 527.874 710.564 528.446C711.419 529.019 712.431 529.314 713.46 529.29C715.872 529.237 718.251 528.71 720.46 527.74C722.877 526.825 725.184 525.645 727.34 524.22L725.26 523.02C725.486 525.382 726.269 527.658 727.545 529.658C728.821 531.659 730.553 533.329 732.6 534.53C732.914 534.68 733.273 534.706 733.606 534.604C733.939 534.501 734.221 534.278 734.397 533.978C734.573 533.677 734.63 533.322 734.556 532.982C734.483 532.641 734.284 532.341 734 532.14L734.05 532.17Z" fill="black"/>
<path d="M714.07 548.82L715.18 548.54L713.83 548.19C714.165 548.427 714.467 548.706 714.73 549.02L714.52 548.74C714.622 548.877 714.709 549.024 714.78 549.18L714.64 548.85C714.692 548.975 714.729 549.106 714.75 549.24V548.87C714.77 548.999 714.77 549.131 714.75 549.26V548.89C714.738 548.99 714.711 549.088 714.67 549.18L714.81 548.85C714.78 548.93 714.736 549.005 714.68 549.07L714.9 548.79C714.844 548.863 714.776 548.927 714.7 548.98L714.98 548.77C714.905 548.824 714.824 548.871 714.74 548.91L715.07 548.77C714.948 548.818 714.82 548.852 714.69 548.87H715.06C714.924 548.885 714.786 548.885 714.65 548.87H715.02C714.868 548.851 714.72 548.811 714.58 548.75L714.91 548.89C714.769 548.827 714.635 548.75 714.51 548.66L714.79 548.88L714.53 548.62L714.75 548.9C714.661 548.792 714.59 548.67 714.54 548.54L714.68 548.87C714.628 548.741 714.591 548.607 714.57 548.47V548.84C714.56 548.703 714.56 548.566 714.57 548.43V548.79C714.596 548.64 714.636 548.492 714.69 548.35L714.55 548.68C714.606 548.556 714.677 548.438 714.76 548.33L714.54 548.61C714.581 548.552 714.628 548.498 714.68 548.45C714.814 548.32 714.921 548.165 714.994 547.993C715.067 547.821 715.105 547.636 715.105 547.45C715.105 547.263 715.067 547.078 714.994 546.907C714.921 546.735 714.814 546.579 714.68 546.45C714.55 546.317 714.394 546.212 714.222 546.141C714.05 546.071 713.866 546.036 713.68 546.04C713.306 546.042 712.948 546.189 712.68 546.45C712.474 546.647 712.302 546.877 712.17 547.13C712.036 547.382 711.939 547.651 711.88 547.93C711.82 548.212 711.8 548.502 711.82 548.79C711.85 549.185 711.952 549.571 712.12 549.93C712.379 550.439 712.783 550.859 713.28 551.14C713.531 551.281 713.8 551.389 714.08 551.46C714.355 551.526 714.638 551.553 714.92 551.54C715.265 551.519 715.603 551.438 715.92 551.3C716.256 551.177 716.556 550.971 716.79 550.7C717.056 550.418 717.248 550.074 717.35 549.7C717.414 549.37 717.414 549.03 717.35 548.7C717.249 548.039 716.949 547.426 716.49 546.94C716.347 546.783 716.193 546.636 716.03 546.5L715.8 546.32C715.67 546.22 715.55 546.1 715.42 546.02C715.091 545.847 714.711 545.801 714.35 545.89L713.24 546.16C712.894 546.258 712.599 546.488 712.42 546.8C712.326 546.958 712.266 547.133 712.241 547.315C712.217 547.498 712.231 547.683 712.28 547.86C712.331 548.042 712.419 548.213 712.538 548.361C712.656 548.508 712.804 548.631 712.971 548.72C713.138 548.81 713.321 548.865 713.51 548.882C713.699 548.899 713.89 548.878 714.07 548.82V548.82Z" fill="black"/>
<path d="M701.71 546C701.868 549.174 701.751 552.356 701.36 555.51C701.145 558.125 700.625 560.706 699.81 563.2C699.21 564.87 701.88 565.6 702.48 563.93C703.33 561.284 703.873 558.55 704.1 555.78C704.511 552.538 704.639 549.265 704.48 546C704.37 544.23 701.6 544.22 701.71 546V546Z" fill="black"/>
<path d="M716.87 536.7C713.875 535.745 710.633 535.934 707.77 537.23C707.614 537.322 707.477 537.444 707.368 537.588C707.258 537.733 707.179 537.898 707.133 538.073C707.088 538.249 707.077 538.432 707.102 538.611C707.128 538.791 707.188 538.964 707.28 539.12C707.471 539.43 707.774 539.654 708.125 539.747C708.477 539.84 708.851 539.795 709.17 539.62C709.32 539.55 709.34 539.54 709.22 539.62L709.48 539.51L709.88 539.38C710.19 539.27 710.5 539.19 710.82 539.11C711.14 539.03 711.45 538.98 711.82 538.93H712.07H712.56H713.56H713.97H714.3C714.946 539.021 715.582 539.171 716.2 539.38C716.554 539.477 716.932 539.429 717.251 539.247C717.57 539.065 717.803 538.764 717.9 538.41C717.997 538.056 717.949 537.678 717.767 537.359C717.585 537.04 717.284 536.807 716.93 536.71L716.87 536.7Z" fill="black"/>
<path d="M758.93 555.06C755.76 560.53 743.93 561.39 744.36 553.6C744.56 550.35 744.36 546.14 746.64 543.6C747.534 542.653 748.645 541.939 749.877 541.519C751.109 541.099 752.424 540.986 753.71 541.19C759.02 542.04 761.4 548.96 759.4 554.03C759.272 554.386 759.115 554.73 758.93 555.06V555.06Z" fill="#E06F19"/>
<path d="M702.25 563.55C703.899 562.324 705.836 561.543 707.874 561.28C709.912 561.018 711.984 561.283 713.89 562.05C716.56 563.05 718.89 564.67 721.61 565.55C726.05 567.01 732.23 565.17 734.61 561C736.08 558.41 735.73 555.31 735.5 552.45C735.2 548.923 734.53 545.437 733.5 542.05C732.5 538.67 730.42 535.05 731.73 531.49L740.63 533.49C742.18 533.83 743.91 534.31 744.63 535.7C745.17 536.7 743.55 538.05 743.45 539.17C742.93 545.17 743.81 551.28 744.32 557.3C744.83 563.32 745.49 569.1 746.25 575C746.99 580.71 747.36 586.59 745.82 592.13C741.48 607.69 720.5 612.43 707.43 605.03C705.791 604.112 704.29 602.967 702.97 601.63C702.76 601.42 702.56 601.21 702.37 600.99C699.93 598.065 698.145 594.652 697.134 590.98C696.123 587.308 695.911 583.462 696.51 579.7C697.41 574.08 699.8 568.7 702.22 563.59" fill="black"/>
<path d="M703 564.74C704.784 563.456 706.896 562.707 709.09 562.58C711.427 562.615 713.719 563.219 715.77 564.34C717.678 565.427 719.688 566.324 721.77 567.02C723.541 567.474 725.389 567.546 727.19 567.23C728.954 567.002 730.646 566.387 732.144 565.429C733.643 564.472 734.912 563.195 735.86 561.69C736.861 559.738 737.304 557.548 737.14 555.36C737.057 552.899 736.803 550.446 736.38 548.02C735.917 545.235 735.204 542.498 734.25 539.84C733.31 537.25 732.25 534.61 733.11 531.84L731.41 532.84C734.49 533.52 737.58 534.15 740.64 534.84C741.39 535.02 742.99 535.28 743.36 536.07L743.47 536C743.433 536.173 743.362 536.336 743.26 536.48C743.17 536.68 743.04 536.86 742.94 537.04C742.628 537.525 742.392 538.054 742.24 538.61C742.013 540.032 741.936 541.473 742.01 542.91C742.01 544.5 742.08 546.1 742.18 547.69C742.4 550.88 742.76 554.06 743.04 557.24C743.6 563.63 744.4 569.97 745.14 576.34C745.8 582 746.07 588.01 744.01 593.44C738.32 608.44 714.34 611.64 703.74 600.27C699.724 595.723 697.555 589.837 697.66 583.77C697.66 576.87 700.66 570.34 703.52 564.23C704.28 562.63 701.89 561.23 701.13 562.83C698.33 568.73 695.58 574.83 695 581.47C694.476 587.375 695.834 593.294 698.88 598.38C704.06 606.86 714.13 610.44 723.72 609.68C732.09 609.01 740.56 605.09 745 597.68C747.86 592.91 748.54 587.16 748.34 581.68C748.09 574.74 746.81 567.82 746.14 560.91C745.77 557.06 745.39 553.2 745.08 549.34C744.92 547.43 744.8 545.52 744.78 543.6C744.78 542.07 744.51 539.95 745.24 538.6C745.84 537.48 746.56 536.42 745.99 535.13C745.663 534.53 745.221 534.001 744.689 533.572C744.157 533.143 743.546 532.823 742.89 532.63C741.29 532.122 739.656 531.728 738 531.45L732.14 530.15C731.782 530.067 731.406 530.124 731.09 530.31C730.774 530.496 730.541 530.797 730.44 531.15C728.97 535.67 731.61 540.02 732.74 544.3C733.417 546.824 733.882 549.399 734.13 552C734.475 554.163 734.475 556.367 734.13 558.53C733.29 562.12 729.75 564.18 726.29 564.61C722.13 565.13 718.92 562.61 715.29 561.12C713.094 560.149 710.687 559.755 708.296 559.976C705.906 560.196 703.611 561.024 701.63 562.38C700.15 563.38 701.53 565.76 703.02 564.77L703 564.74Z" fill="black"/>
<path d="M712.74 570.83C714.796 569.89 716.687 568.623 718.34 567.08C718.474 566.95 718.581 566.795 718.654 566.623C718.727 566.451 718.764 566.267 718.764 566.08C718.764 565.893 718.727 565.709 718.654 565.537C718.581 565.365 718.474 565.21 718.34 565.08C718.209 564.948 718.053 564.844 717.881 564.772C717.71 564.701 717.526 564.664 717.34 564.664C717.154 564.664 716.97 564.701 716.798 564.772C716.627 564.844 716.471 564.948 716.34 565.08C715.95 565.44 715.55 565.78 715.14 566.08C715 566.19 715.14 566.08 715.2 566.08C715.146 566.111 715.096 566.148 715.05 566.19L714.71 566.44L714.06 566.89C713.179 567.47 712.253 567.979 711.29 568.41C710.979 568.594 710.753 568.892 710.66 569.24C710.61 569.417 710.597 569.602 710.621 569.784C710.645 569.967 710.706 570.142 710.8 570.3C710.989 570.611 711.292 570.838 711.644 570.931C711.997 571.024 712.371 570.977 712.69 570.8L712.74 570.83Z" fill="#E06F19"/>
<path d="M595.51 456.27H883.15C893.031 456.119 902.846 457.892 912.05 461.49C929.244 468.558 943.042 481.998 950.56 499C955.08 509.24 956.56 520 956.56 531.12V664.21C956.56 670.97 956.77 677.78 955.71 684.49C953.548 698.216 947.429 711.014 938.105 721.315C928.78 731.617 916.653 738.976 903.21 742.49C896.152 744.178 888.905 744.951 881.65 744.79H866.88C866.668 744.793 866.459 744.843 866.269 744.938C866.079 745.033 865.913 745.171 865.784 745.339C865.655 745.508 865.566 745.704 865.523 745.912C865.481 746.12 865.487 746.335 865.54 746.54C870.791 761.759 878.541 775.997 888.47 788.67L889.82 786.36C869.473 781.659 850.462 772.389 834.23 759.25C830.375 756.112 826.687 752.774 823.18 749.25C821.88 747.94 820.03 745.03 818.18 744.75C817.181 744.676 816.178 744.676 815.18 744.75H596.18C581.279 744.881 566.711 740.346 554.516 731.782C542.322 723.217 533.113 711.052 528.18 696.99C522.76 681.45 524.18 664.4 524.18 648.18V528.69C524.064 515.943 527.295 503.388 533.55 492.28C539.778 481.334 548.798 472.234 559.69 465.91C570.581 459.586 582.955 456.263 595.55 456.28C595.897 456.251 596.22 456.092 596.456 455.836C596.691 455.579 596.822 455.244 596.822 454.895C596.822 454.547 596.691 454.212 596.456 453.955C596.22 453.699 595.897 453.54 595.55 453.51C578.593 453.499 562.145 459.298 548.944 469.941C535.743 480.583 526.586 495.427 523 512C521.47 519.13 521.35 526.28 521.35 533.52V631.13V673.34C521.348 689.851 526.855 705.891 536.998 718.918C547.142 731.945 561.342 741.216 577.35 745.26C589.88 748.42 603.27 747.51 616.1 747.51H815C816.039 747.38 817.091 747.38 818.13 747.51H818.27C817.04 746.99 818.72 748.64 818.74 748.66C819.23 749.18 819.74 749.66 820.22 750.19L823.22 753.19C834.324 763.87 847.082 772.683 861 779.29C869.985 783.523 879.399 786.779 889.08 789C889.371 789.068 889.677 789.041 889.952 788.923C890.227 788.805 890.456 788.602 890.607 788.344C890.758 788.085 890.822 787.785 890.791 787.488C890.759 787.19 890.632 786.911 890.43 786.69C880.807 774.376 873.298 760.548 868.21 745.77L866.88 747.52C879.46 747.52 892.22 748.28 904.5 744.98C920.382 740.687 934.385 731.236 944.307 718.113C954.23 704.99 959.507 688.941 959.31 672.49V575.15C959.31 559.15 959.45 543.07 959.31 527.03C959.153 508.423 952.005 490.555 939.286 476.973C926.567 463.391 909.207 455.087 890.65 453.71C880.37 452.94 869.87 453.5 859.57 453.5H595.51C595.163 453.53 594.84 453.689 594.604 453.945C594.368 454.202 594.238 454.537 594.238 454.885C594.238 455.234 594.368 455.569 594.604 455.826C594.84 456.082 595.163 456.241 595.51 456.27V456.27Z" fill="#E06F19"/>
<path d="M226.49 339.84C247.33 365.58 309.57 360.42 300.77 320.48C297.09 303.77 294.84 281.83 280.88 270.78C275.491 266.594 269.161 263.789 262.441 262.607C255.721 261.425 248.813 261.904 242.32 264C215.5 272.72 208.81 310.49 223.24 335.11C224.204 336.766 225.29 338.347 226.49 339.84V339.84Z" fill="#E06F19"/>
<path d="M268.27 280.71C268.42 288.13 268.47 307.08 258.71 313.43C257.26 314.38 259.71 312.01 258.71 313.43C257.71 314.85 254.01 307.22 255.02 308.64C253.139 313.385 251.562 318.245 250.3 323.19C249.3 326.95 248.88 331.05 247.3 334.68C246.617 336.085 245.659 337.339 244.485 338.37C243.31 339.4 241.942 340.185 240.46 340.68C237.46 341.85 233.46 343.68 230.24 343.16C226.68 342.61 224.74 338.82 223.24 335.54C220.001 328.427 216.245 321.562 212 315C209.975 312.161 208.252 309.118 206.86 305.92C202.98 295.71 208.45 282.92 218.51 278.63C219.406 278.323 220.247 277.874 221 277.3C221.939 276.25 222.623 274.997 223 273.64C225.61 267.17 231.58 262.5 238.09 260C244.6 257.5 251.68 256.94 258.65 256.68C265.94 256.292 273.25 256.567 280.49 257.5C283.06 257.87 285.84 258.5 287.4 260.58C288.96 262.66 288.1 266.46 285.52 266.66C287.081 266.224 288.727 266.195 290.302 266.575C291.878 266.954 293.33 267.731 294.52 268.83C295.535 269.715 296.195 270.937 296.38 272.27C296.68 275.8 292.45 277.87 288.93 278.32C282.514 279.121 276.005 278.008 270.22 275.12C271.88 277.12 269.59 279.95 267.5 281.51" fill="black"/>
<path d="M266.89 280.71C267.113 286.196 266.778 291.691 265.89 297.11C265.387 300.179 264.472 303.166 263.17 305.99C262.533 307.33 261.737 308.589 260.8 309.74C260.331 310.299 259.82 310.82 259.27 311.3C259.02 311.526 258.756 311.737 258.48 311.93C258.18 312.15 257.48 312.38 258.28 312.28L259.28 312.68L259.63 314.03C259.42 314.74 259.29 314.47 259.58 314.25C259.87 314.03 259.48 314.25 259.37 314.32L258.02 313.96L257.67 312.62C257.67 312.38 257.84 312.47 257.67 312.54C258.031 312.423 258.403 312.346 258.78 312.31C258.665 312.223 258.561 312.122 258.47 312.01C258.1 311.571 257.765 311.103 257.47 310.61C257.15 310.09 256.86 309.56 256.58 309.02C256.46 308.8 256.37 308.53 256.24 308.32C256.11 308.11 256.24 308.32 256.24 308.32C256.03 308.32 256.66 306.77 256.17 308.81L255.17 309.81L254.11 309.67C253.969 309.593 253.849 309.483 253.76 309.35L253.62 308.28C252.16 311.99 250.87 315.77 249.78 319.6C248.78 323.08 248.17 326.6 247.27 330.14C246.44 333.43 245.27 336.35 242.27 338.2C239.585 339.788 236.66 340.933 233.61 341.59C232.29 342.092 230.831 342.089 229.514 341.581C228.196 341.074 227.112 340.098 226.47 338.84C224.61 336.04 223.47 332.76 221.94 329.76C220.26 326.4 218.47 323.09 216.56 319.86C214.65 316.63 212.56 313.6 210.64 310.44C208.82 307.71 207.596 304.626 207.05 301.39C206.725 298.758 206.915 296.089 207.61 293.53C208.969 288.228 212.356 283.671 217.04 280.84C218.29 280.11 219.71 279.71 220.94 278.96C222.21 278.125 223.169 276.895 223.67 275.46C224.775 272.533 226.455 269.857 228.61 267.59C233.23 262.94 239.45 260.49 245.79 259.29C250.01 258.564 254.279 258.156 258.56 258.07C262.94 257.91 267.32 257.86 271.7 258.07C273.96 258.18 276.22 258.36 278.48 258.64C280.253 258.778 282.002 259.131 283.69 259.69C285.03 260.19 286.49 261.12 286.69 262.69C286.8 263.55 286.53 265.16 285.43 265.3L285.8 268.02C288.8 267.2 292.48 268.11 294.32 270.78C296.16 273.45 293.58 275.53 291.21 276.38C288.21 277.46 284.62 277.38 281.46 277.05C277.776 276.645 274.191 275.596 270.87 273.95C269.75 273.4 268.09 274.63 268.98 275.84C270.14 277.45 267.98 279.42 266.75 280.34C265.36 281.41 266.75 283.82 268.15 282.73C270.51 280.92 273.59 277.51 271.36 274.45L269.47 276.34C275.72 279.42 283.28 280.93 290.2 279.53C292.76 279 295.61 277.72 296.98 275.37C298.59 272.61 297.32 269.43 294.98 267.51C293.61 266.371 291.986 265.58 290.245 265.204C288.504 264.828 286.698 264.878 284.98 265.35C283.53 265.75 283.76 268.27 285.35 268.07C288.35 267.69 289.79 264.85 289.29 262.07C288.7 258.68 285.21 257.07 282.17 256.48C273.66 254.77 264.6 255.02 255.98 255.48C247.98 255.89 239.83 256.97 232.81 260.97C229.747 262.669 227.032 264.932 224.81 267.64C223.721 268.978 222.792 270.438 222.04 271.99C221.32 273.53 220.95 275.68 219.43 276.64C217.91 277.6 216.37 277.97 214.95 278.86C213.636 279.685 212.412 280.647 211.3 281.73C209.107 283.873 207.348 286.42 206.12 289.23C204.8 292.125 204.099 295.264 204.059 298.446C204.019 301.627 204.643 304.783 205.89 307.71C207.58 311.56 210.15 314.96 212.35 318.51C214.783 322.17 217 325.963 219 329.89C220.73 333.29 222 337.05 224.17 340.23C225.98 342.95 228.52 344.79 231.91 344.61C235.46 344.43 239.14 342.88 242.32 341.36C245.434 339.888 247.836 337.241 249 334C250.45 330.18 250.92 326.06 252 322.14C253.17 317.81 254.75 313.66 256.19 309.42C256.61 308.17 255.98 306.87 254.49 307.1C254.246 307.156 254.023 307.279 253.846 307.456C253.669 307.633 253.546 307.856 253.49 308.1C253.22 309.24 254.28 310.71 254.83 311.64C255.51 312.79 256.43 314.49 257.83 314.9C259.52 315.41 261.43 312.81 259.63 311.77C258.16 310.93 255.92 313.35 257.27 314.64C258.62 315.93 261.27 313.3 262.17 312.31C263.66 310.701 264.879 308.86 265.78 306.86C267.605 302.63 268.746 298.138 269.16 293.55C269.608 289.286 269.772 284.996 269.65 280.71C269.65 278.93 266.84 278.92 266.88 280.71H266.89Z" fill="black"/>
<path d="M287 305C286.63 305 286.26 304.92 285.9 304.9C285.1 304.9 284.59 305.59 284.16 306.16C283.817 306.61 283.593 307.14 283.51 307.7C283.459 308.031 283.459 308.369 283.51 308.7C283.527 308.785 283.551 308.868 283.58 308.95C283.645 309.135 283.729 309.312 283.83 309.48C284.048 309.821 284.347 310.103 284.7 310.3C285.335 310.627 286.068 310.709 286.76 310.53C287.043 310.458 287.312 310.344 287.56 310.19C287.807 310.041 288.032 309.859 288.23 309.65C288.421 309.445 288.58 309.213 288.7 308.96C288.879 308.583 288.984 308.176 289.01 307.76C289.01 307.67 289.01 307.57 289.01 307.47C288.988 307.258 288.951 307.047 288.9 306.84C288.82 306.551 288.698 306.275 288.54 306.02C288.305 305.68 288.01 305.385 287.67 305.15C287.352 304.966 286.975 304.915 286.62 305.006C286.264 305.098 285.959 305.326 285.77 305.64C285.585 305.965 285.535 306.349 285.63 306.71L285.77 307.04C285.892 307.244 286.064 307.412 286.27 307.53L285.99 307.31C286.1 307.396 286.2 307.493 286.29 307.6L286.07 307.32C286.15 307.434 286.22 307.554 286.28 307.68L286.14 307.35C286.191 307.494 286.231 307.641 286.26 307.79L286.21 307.42C286.22 307.56 286.22 307.7 286.21 307.84L286.26 307.47C286.243 307.608 286.206 307.743 286.15 307.87L286.29 307.54C286.24 307.654 286.176 307.762 286.1 307.86L286.32 307.58C286.23 307.69 286.13 307.79 286.02 307.88L286.3 307.66C286.19 307.748 286.069 307.822 285.94 307.88L286.27 307.74C286.126 307.8 285.975 307.84 285.82 307.86H286.19H285.81H286.18C286.064 307.849 285.949 307.822 285.84 307.78L286.17 307.92C286.078 307.88 285.991 307.829 285.91 307.77L286.19 307.99C286.122 307.934 286.062 307.87 286.01 307.8L286.22 308.08C286.168 308.017 286.128 307.946 286.1 307.87L286.24 308.2C286.196 308.098 286.166 307.99 286.15 307.88L286.2 308.24C286.18 308.101 286.18 307.959 286.2 307.82L286.15 308.18C286.173 308.037 286.209 307.896 286.26 307.76L286.13 308.09C286.221 307.871 286.342 307.665 286.49 307.48L286.27 307.76C286.429 307.561 286.6 307.37 286.78 307.19L285.78 307.59L286.92 307.69C287.102 307.691 287.282 307.656 287.45 307.588C287.618 307.519 287.77 307.417 287.899 307.289C288.027 307.16 288.129 307.008 288.198 306.84C288.267 306.672 288.301 306.492 288.3 306.31C288.304 306.125 288.27 305.941 288.202 305.769C288.133 305.597 288.03 305.441 287.9 305.31C287.64 305.115 287.325 305.007 287 305V305Z" fill="black"/>
<path d="M295.85 303.28C296.192 306.609 296.828 309.902 297.75 313.12C298.416 315.861 299.399 318.516 300.68 321.03C301.53 322.59 303.92 321.2 303.06 319.63C301.906 317.325 301.021 314.896 300.42 312.39C299.553 309.412 298.948 306.363 298.61 303.28C298.6 302.917 298.451 302.572 298.195 302.315C297.938 302.059 297.593 301.91 297.23 301.9C296.865 301.903 296.515 302.049 296.257 302.307C295.999 302.565 295.853 302.915 295.85 303.28Z" fill="black"/>
<path d="M283.44 298.67L283.94 298.43C284.22 298.29 283.85 298.43 284.11 298.35C284.37 298.27 284.71 298.13 285.02 298.04C285.326 297.947 285.636 297.87 285.95 297.81L286.49 297.71C286.66 297.71 286.67 297.71 286.49 297.71H286.69C287.329 297.65 287.971 297.65 288.61 297.71H289.09C289.26 297.71 289.27 297.71 289.09 297.71H289.29C289.63 297.77 289.96 297.85 290.29 297.93C290.467 297.985 290.653 298.004 290.837 297.986C291.022 297.967 291.2 297.912 291.363 297.823C291.526 297.735 291.668 297.614 291.783 297.469C291.898 297.323 291.983 297.156 292.032 296.978C292.081 296.799 292.093 296.612 292.069 296.429C292.044 296.245 291.983 296.068 291.888 295.909C291.794 295.75 291.668 295.611 291.519 295.501C291.37 295.391 291.2 295.313 291.02 295.27C287.98 294.472 284.753 294.828 281.96 296.27C281.645 296.456 281.415 296.758 281.322 297.112C281.228 297.466 281.278 297.842 281.46 298.16C281.651 298.469 281.954 298.694 282.305 298.787C282.657 298.88 283.031 298.834 283.35 298.66L283.44 298.67Z" fill="black"/>
<path d="M250.5 323.35C254.5 328.26 266.35 327.28 264.67 319.66C263.97 316.47 263.54 312.28 260.88 310.17C259.85 309.374 258.641 308.841 257.359 308.618C256.076 308.395 254.758 308.489 253.52 308.89C248.4 310.55 247.12 317.76 249.88 322.45C250.06 322.768 250.267 323.069 250.5 323.35V323.35Z" fill="#E06F19"/>
<path d="M289.85 328.17C287.347 326.268 284.577 324.745 281.63 323.65C280.38 323.18 278.93 322.81 277.77 323.46C277.246 323.826 276.817 324.312 276.52 324.877C276.222 325.443 276.065 326.071 276.06 326.71C275.92 329.465 276.787 332.177 278.5 334.34C279.14 335.25 279.969 336.01 280.93 336.57C281.413 336.846 281.948 337.016 282.502 337.069C283.055 337.123 283.613 337.058 284.14 336.88C285.89 336.22 286.65 334.21 287.21 332.42C287.797 330.885 288.096 329.254 288.09 327.61" fill="black"/>
<path d="M290.55 327C287.892 324.977 284.937 323.378 281.79 322.26C280.23 321.71 278.38 321.43 276.91 322.38C276.299 322.819 275.79 323.385 275.417 324.039C275.044 324.693 274.817 325.42 274.75 326.17C274.584 327.812 274.746 329.472 275.227 331.051C275.707 332.63 276.497 334.098 277.55 335.37C278.496 336.707 279.834 337.718 281.38 338.26C282.159 338.508 282.987 338.559 283.79 338.407C284.593 338.255 285.346 337.906 285.98 337.39C287.119 336.319 287.937 334.951 288.34 333.44C289.076 331.59 289.462 329.62 289.48 327.63C289.4 325.86 286.63 325.85 286.71 327.63C286.706 329.06 286.452 330.478 285.96 331.82C285.696 332.806 285.299 333.751 284.78 334.63C284.567 335.004 284.248 335.306 283.864 335.5C283.48 335.694 283.047 335.771 282.62 335.72C281.519 335.466 280.548 334.819 279.89 333.9C278.281 332.04 277.403 329.659 277.42 327.2C277.391 326.756 277.454 326.311 277.605 325.893C277.757 325.475 277.993 325.092 278.3 324.77C279.11 324.15 280.43 324.7 281.3 325C284.132 326.066 286.791 327.546 289.19 329.39C289.507 329.572 289.884 329.622 290.238 329.528C290.592 329.435 290.894 329.205 291.08 328.89C291.26 328.573 291.31 328.198 291.219 327.845C291.127 327.492 290.902 327.189 290.59 327H290.55Z" fill="black"/>
<path d="M788.23 201.35C777.6 232.71 717.43 249.43 711.85 208.91C709.51 191.96 704.03 170.61 713.3 155.4C716.913 149.613 721.884 144.796 727.781 141.366C733.678 137.937 740.324 135.998 747.14 135.72C775.31 134.61 794.67 167.72 789.66 195.82C789.325 197.697 788.847 199.546 788.23 201.35V201.35Z" fill="#E06F19"/>
<path d="M748.08 189.18C738.89 181.39 727.72 167.55 726.48 155.57C722.454 160.176 717.73 164.12 712.48 167.26C710.728 168.325 709.287 169.832 708.301 171.629C707.314 173.426 706.818 175.451 706.86 177.5C706.865 177.919 706.898 178.336 706.96 178.75C702.16 175.9 696.33 171.28 696.4 165.69C696.4 162.69 698.12 160.01 699.93 157.6C704.89 151.004 710.67 145.066 717.13 139.93C723.13 135.13 730.04 130.5 737.8 129.69C739.649 129.429 741.532 129.589 743.31 130.16C744.188 130.559 745.086 130.913 746 131.22C747.664 131.49 749.366 131.415 751 131C759.116 129.648 767.453 130.857 774.85 134.46C782.239 138.121 788.064 144.319 791.26 151.92C795.95 163.48 792.94 184.42 790.43 196.64C790.292 197.818 789.84 198.938 789.12 199.88C787.8 201.32 785.58 201.3 783.63 201.17C772.63 200.45 762.38 194.65 751.63 191.91" fill="black"/>
<path d="M749.06 188.2C743.959 183.869 739.438 178.898 735.61 173.41C731.94 168.14 728.61 162.07 727.86 155.57C727.74 154.5 726.37 153.57 725.5 154.57C721.621 158.942 717.127 162.729 712.16 165.81C707.71 168.61 704.92 173.38 705.59 178.72L707.67 177.53C702.61 174.53 695.67 169.26 698.51 162.53C700.01 159.02 702.88 155.93 705.36 153.08C707.868 150.203 710.539 147.472 713.36 144.9C718.87 139.9 725.09 134.9 732.18 132.39C735.54 131.2 739.68 130.23 743.13 131.57C744.854 132.422 746.769 132.818 748.69 132.72C750.62 132.53 752.52 132.11 754.46 131.97C768.89 130.89 783.53 138.03 789.6 151.56C792.03 156.99 792.37 163.23 792.31 169.09C792.197 175.647 791.582 182.186 790.47 188.65C790.02 191.45 789.57 194.28 788.9 197.04C788.42 199.04 787.32 199.78 785.29 199.83C783.454 199.835 781.623 199.664 779.82 199.32C772.11 197.99 764.93 194.7 757.55 192.22C755.72 191.61 753.88 191.05 752.01 190.57C751.662 190.487 751.295 190.543 750.988 190.725C750.68 190.907 750.455 191.202 750.36 191.547C750.265 191.892 750.308 192.26 750.48 192.574C750.652 192.888 750.938 193.123 751.28 193.23C759.5 195.37 767.18 199.14 775.42 201.23C779.06 202.14 783.42 203.15 787.14 202.42C790.86 201.69 791.58 197.94 792.21 194.65C793.546 187.908 794.445 181.087 794.9 174.23C795.3 167.58 795.3 160.58 793.45 154.12C789.22 139.36 774.54 129.95 759.71 129.12C757.666 129.016 755.617 129.063 753.58 129.26C751.45 129.46 749.19 130.18 747.05 129.97C745.05 129.78 743.38 128.54 741.39 128.29C739.358 128.081 737.305 128.199 735.31 128.64C727.31 130.19 720.49 135.23 714.41 140.32C708.1 145.58 701.96 151.73 697.41 158.64C695.41 161.77 694.2 165.52 695.57 169.16C696.946 172.337 699.171 175.074 702 177.07C703.338 178.103 704.738 179.054 706.19 179.92C707.01 180.41 708.41 179.79 708.27 178.72C707.938 176.327 708.443 173.893 709.7 171.83C711.06 169.62 713.15 168.45 715.26 167.05C719.747 164.09 723.823 160.549 727.38 156.52L725.02 155.52C725.78 162.41 729.02 168.78 732.91 174.43C736.906 180.249 741.65 185.517 747.02 190.1C748.37 191.25 750.34 189.3 749.02 188.1L749.06 188.2Z" fill="black"/>
<path d="M744.71 131.51C747.581 128.298 751.1 125.732 755.035 123.981C758.97 122.23 763.232 121.333 767.54 121.35C774.23 121.42 780.79 123.72 787.47 123.4C791.17 123.2 794.785 122.212 798.073 120.501C801.36 118.79 804.243 116.396 806.53 113.48C808.98 110.31 810.66 106.61 813.08 103.42C816.347 99.258 820.751 96.1332 825.758 94.4239C830.765 92.7146 836.16 92.4944 841.29 93.7898C847.29 95.3998 853.08 99.1298 859.16 97.9898C863.6 97.1598 867.16 93.8998 871.16 91.8498C880.26 87.1998 891.98 89.3298 899.85 95.8498C907.72 102.37 911.85 112.68 912.36 122.85C912.87 133.02 909.87 143.21 905.36 152.4C891.89 180.07 864.36 199.81 834.36 206.4C804.36 212.99 775.13 206 748 191.55" fill="black"/>
<path d="M745.69 132.49C750.154 127.506 756.181 124.191 762.78 123.09C770.17 121.85 777.34 124.43 784.68 124.78C791.344 125.093 797.896 122.987 803.13 118.85C805.644 116.819 807.798 114.378 809.5 111.63C811.42 108.63 813.03 105.38 815.5 102.72C819.568 98.3307 825.011 95.4595 830.93 94.5799C833.922 94.1212 836.972 94.2162 839.93 94.8599C843.43 95.6399 846.69 97.2099 850.09 98.3299C853.244 99.5196 856.66 99.8374 859.98 99.2499C863.23 98.5299 865.98 96.5999 868.78 94.8599C871.448 93.0664 874.435 91.8003 877.58 91.1299C880.554 90.5686 883.606 90.5686 886.58 91.1299C899.89 93.6199 908.38 105.34 910.58 118.13C912.97 132.34 907.58 146.94 900.35 158.94C887.54 180.07 866.28 195.52 842.81 202.79C829.228 206.968 814.951 208.402 800.81 207.01C786.177 205.413 771.908 201.409 758.58 195.16C755.247 193.653 751.973 192.04 748.76 190.32C747.19 189.49 745.76 191.87 747.36 192.71C760.78 199.81 775.08 205.42 790.03 208.23C804.843 211.09 820.08 210.93 834.83 207.76C847.404 204.984 859.392 200.022 870.25 193.1C880.999 186.289 890.406 177.561 898 167.35C906.35 156.02 912.81 142.35 913.72 128.15C914.58 114.81 909.57 100.29 897.98 92.7599C892.543 89.2102 886.083 87.561 879.61 88.0699C876.433 88.3417 873.338 89.2174 870.49 90.6499C867.49 92.1999 864.8 94.4199 861.68 95.7799C854.47 98.9299 847.56 93.7799 840.68 92.1899C834.599 90.8903 828.26 91.5918 822.61 94.1899C819.8 95.4657 817.218 97.1955 814.97 99.3099C812.547 101.75 810.477 104.517 808.82 107.53C807.109 110.678 804.908 113.533 802.3 115.99C799.783 118.178 796.846 119.832 793.67 120.85C786.2 123.24 778.85 120.99 771.34 120.16C764.43 119.357 757.445 120.802 751.42 124.28C748.578 125.945 746.014 128.043 743.82 130.5C742.63 131.82 744.58 133.78 745.82 132.5L745.69 132.49Z" fill="black"/>
<path d="M720.6 192.1L721.6 191.62H720.2C720.522 191.769 720.83 191.946 721.12 192.15L720.84 191.94C720.999 192.055 721.141 192.193 721.26 192.35L721.05 192.07C721.125 192.173 721.189 192.283 721.24 192.4L721.1 192.07C721.152 192.188 721.189 192.313 721.21 192.44V192.07C721.225 192.183 721.225 192.297 721.21 192.41V192.04C721.2 192.122 721.179 192.203 721.15 192.28L721.29 191.95C721.256 192.028 721.212 192.102 721.16 192.17L721.38 191.89C721.318 191.97 721.247 192.044 721.17 192.11L721.45 191.89C721.346 191.966 721.236 192.033 721.12 192.09L721.45 191.95C721.328 191.998 721.2 192.032 721.07 192.05L721.44 192C721.284 192.02 721.126 192.02 720.97 192L721.34 192.05C721.2 192.029 721.062 191.992 720.93 191.94L721.26 192.08C721.129 192.024 721.005 191.954 720.89 191.87L721.17 192.08C721.071 192.01 720.984 191.926 720.91 191.83L721.13 192.11C721.048 192.004 720.978 191.89 720.92 191.77L721.06 192.1C721.008 191.961 720.971 191.817 720.95 191.67V192.03C720.935 191.884 720.935 191.736 720.95 191.59V191.96C720.975 191.813 721.015 191.669 721.07 191.53L720.93 191.86C720.971 191.773 721.017 191.69 721.07 191.61C721.255 191.285 721.305 190.901 721.21 190.54C721.111 190.194 720.881 189.9 720.57 189.72C720.412 189.626 720.236 189.565 720.054 189.541C719.872 189.517 719.687 189.53 719.51 189.58C719.166 189.683 718.872 189.907 718.68 190.21C718.521 190.452 718.403 190.719 718.33 191C718.249 191.282 718.211 191.576 718.22 191.87C718.232 192.457 718.417 193.027 718.75 193.51C718.978 193.823 719.259 194.094 719.58 194.31C719.818 194.465 720.077 194.583 720.35 194.66C720.626 194.74 720.912 194.78 721.2 194.78C721.785 194.797 722.36 194.625 722.84 194.29C723.176 194.069 723.454 193.771 723.65 193.42C723.844 193.064 723.947 192.665 723.95 192.26C723.946 192.058 723.923 191.857 723.88 191.66C723.859 191.565 723.833 191.471 723.8 191.38C723.656 191.014 723.45 190.675 723.19 190.38C722.983 190.151 722.748 189.949 722.49 189.78C722.322 189.657 722.145 189.547 721.96 189.45L721.69 189.31C721.56 189.236 721.423 189.175 721.28 189.13C720.919 189.035 720.535 189.085 720.21 189.27L719.21 189.76C718.898 189.939 718.668 190.234 718.57 190.58C718.475 190.941 718.525 191.325 718.71 191.65C718.894 191.96 719.192 192.185 719.54 192.28H719.9C720.146 192.286 720.388 192.224 720.6 192.1V192.1Z" fill="black"/>
<path d="M707.88 191.92C708.64 194.925 709.139 197.989 709.37 201.08C709.664 203.641 709.684 206.225 709.43 208.79C709.347 209.148 709.404 209.523 709.59 209.84C709.776 210.156 710.077 210.389 710.43 210.49C710.607 210.537 710.792 210.548 710.974 210.523C711.155 210.497 711.33 210.437 711.488 210.344C711.646 210.251 711.784 210.127 711.894 209.981C712.005 209.834 712.085 209.668 712.13 209.49C712.455 206.686 712.455 203.854 712.13 201.05C711.886 197.71 711.354 194.398 710.54 191.15C710.42 190.822 710.18 190.552 709.87 190.393C709.559 190.234 709.201 190.197 708.864 190.29C708.528 190.383 708.239 190.6 708.055 190.896C707.871 191.192 707.805 191.547 707.87 191.89L707.88 191.92Z" fill="black"/>
<path d="M720.79 179.71C717.79 179.369 714.767 180.133 712.29 181.86C711.98 182.053 711.755 182.358 711.664 182.712C711.573 183.066 711.622 183.441 711.8 183.76C711.989 184.072 712.293 184.297 712.646 184.389C712.999 184.48 713.373 184.43 713.69 184.25C714.224 183.869 714.789 183.534 715.38 183.25L715.62 183.14C715.49 183.19 715.5 183.19 715.62 183.14L716.11 182.96C716.42 182.85 716.73 182.76 717.05 182.68C717.37 182.6 717.68 182.54 718.05 182.48C718.21 182.48 718.22 182.48 718.05 182.48H718.31H718.76C719.427 182.441 720.096 182.461 720.76 182.54C720.942 182.541 721.122 182.507 721.29 182.438C721.458 182.369 721.61 182.267 721.739 182.139C721.867 182.01 721.969 181.858 722.038 181.69C722.107 181.522 722.141 181.342 722.14 181.16C722.13 180.797 721.981 180.452 721.725 180.195C721.468 179.939 721.123 179.79 720.76 179.78L720.79 179.71Z" fill="black"/>
<path d="M760 194.2C758 200.2 746.49 203.37 745.43 195.64C744.98 192.41 743.94 188.33 745.71 185.43C746.398 184.326 747.345 183.407 748.469 182.752C749.593 182.096 750.86 181.725 752.16 181.67C757.54 181.46 761.23 187.78 760.28 193.14C760.213 193.5 760.119 193.854 760 194.2V194.2Z" fill="#E06F19"/>
<path d="M612.58 97.3898H900.22C910.101 97.2416 919.917 99.018 929.12 102.62C946.311 109.673 960.109 123.099 967.63 140.09C972.15 150.33 973.63 161.09 973.63 172.21V305.33C973.63 312.1 973.84 318.9 972.78 325.61C970.624 339.338 964.508 352.139 955.182 362.441C945.856 372.744 933.726 380.101 920.28 383.61C913.223 385.303 905.976 386.076 898.72 385.91H884C883.788 385.912 883.579 385.963 883.389 386.058C883.199 386.153 883.033 386.29 882.904 386.459C882.775 386.627 882.686 386.823 882.644 387.031C882.601 387.239 882.607 387.454 882.66 387.66C887.914 402.881 895.663 417.122 905.59 429.8L906.94 427.48C886.594 422.785 867.585 413.514 851.36 400.37C847.497 397.236 843.805 393.898 840.3 390.37C839 389.07 837.15 386.15 835.3 385.87C834.301 385.8 833.299 385.8 832.3 385.87H613.3C598.401 386 583.834 381.466 571.64 372.903C559.446 364.341 550.236 352.178 545.3 338.12C539.88 322.58 541.3 305.52 541.3 289.31V169.82C541.183 157.072 544.414 144.517 550.67 133.41C559.021 118.832 572.215 107.641 587.96 101.78C595.883 98.8926 604.248 97.407 612.68 97.3898C613.046 97.3898 613.397 97.2444 613.656 96.9856C613.915 96.7268 614.06 96.3758 614.06 96.0098C614.06 95.6438 613.915 95.2928 613.656 95.034C613.397 94.7752 613.046 94.6298 612.68 94.6298C595.728 94.6345 579.289 100.445 566.1 111.095C552.91 121.744 543.766 136.589 540.19 153.16C538.67 160.3 538.54 167.44 538.54 174.68V272.29C538.54 286.36 538.49 300.43 538.54 314.51C538.544 331.012 544.047 347.042 554.179 360.066C564.312 373.091 578.496 382.368 594.49 386.43C607.02 389.59 620.41 388.68 633.24 388.68H832.24C833.276 388.545 834.324 388.545 835.36 388.68C835.36 388.68 835.46 388.68 835.5 388.68C834.27 388.15 835.95 389.81 835.97 389.83L837.45 391.36L840.45 394.36C844.109 397.9 847.958 401.239 851.98 404.36C860.115 410.662 868.91 416.064 878.21 420.47C887.189 424.714 896.601 427.976 906.28 430.2C906.571 430.268 906.877 430.241 907.152 430.123C907.427 430.004 907.656 429.801 907.807 429.543C907.958 429.285 908.023 428.985 907.991 428.687C907.959 428.39 907.832 428.11 907.63 427.89C898.01 415.577 890.501 401.753 885.41 386.98L884 388.68C896.58 388.68 909.34 389.44 921.62 386.13C937.502 381.84 951.506 372.391 961.429 359.27C971.351 346.148 976.629 330.099 976.43 313.65V216.27C976.43 200.27 976.57 184.19 976.43 168.16C976.275 149.551 969.129 131.681 956.41 118.096C943.691 104.512 926.329 96.207 907.77 94.8298C897.49 94.0598 886.99 94.6298 876.69 94.6298H612.58C612.214 94.6298 611.863 94.7752 611.604 95.034C611.345 95.2928 611.2 95.6438 611.2 96.0098C611.2 96.3758 611.345 96.7268 611.604 96.9856C611.863 97.2444 612.214 97.3898 612.58 97.3898V97.3898Z" fill="black"/>
<path d="M726.13 213.44C728.21 211.05 730.39 208.33 730.35 204.98C730.347 204.614 730.201 204.263 729.944 204.003C729.686 203.744 729.336 203.595 728.97 203.59C728.604 203.6 728.257 203.75 727.998 204.008C727.74 204.267 727.59 204.614 727.58 204.98C727.59 205.14 727.59 205.3 727.58 205.46V205.76C727.58 205.96 727.63 205.54 727.58 205.76C727.53 205.98 727.45 206.41 727.35 206.76C727.3 206.92 727.25 207.06 727.19 207.21C727.13 207.36 727.19 207.33 727.19 207.21C727.19 207.3 727.11 207.39 727.06 207.48C726.92 207.793 726.76 208.097 726.58 208.39C726.42 208.67 726.24 208.95 726.05 209.22L725.73 209.67L725.58 209.87C725.46 210.04 725.71 209.71 725.58 209.87C725.14 210.44 724.67 210.99 724.2 211.53C723.941 211.795 723.799 212.152 723.803 212.523C723.808 212.893 723.96 213.246 724.225 213.505C724.49 213.763 724.847 213.906 725.218 213.901C725.588 213.897 725.941 213.745 726.2 213.48L726.13 213.44Z" fill="black"/>
<path d="M967.24 347.22C957.37 332.02 944.79 318.52 932.35 305.22C914.26 285.9 906.23 260.45 882.63 248.47C869.854 242 855.977 237.988 841.72 236.64C837.29 236.23 832.72 236.06 828.55 234.64C821.98 232.43 815.55 228.64 809.36 224.22L778.25 248.63C778.97 251.644 778.8 254.802 777.76 257.72C775.9 262.62 771.39 265.93 767.14 269C759.63 274.42 751.97 280.28 747.79 288.54C744.51 295.01 743.66 302.4 742.86 309.61L734.66 383.51C734.52 384.76 734.39 386.01 734.29 387.26H835.35C854.347 407.959 879.154 422.434 906.52 428.79C896.73 416.324 889.116 402.293 884 387.29H902.29C915.765 387.282 928.973 383.531 940.441 376.455C951.909 369.38 961.187 359.259 967.24 347.22V347.22Z" fill="black"/>
<path d="M968.43 346.52C960.25 333.96 950.37 322.64 940.22 311.66C935.63 306.66 930.89 301.86 926.75 296.49C923.07 291.71 919.75 286.69 916.36 281.67C909.96 272.09 903.43 262.31 894.55 254.8C889.655 250.773 884.219 247.454 878.4 244.94C871.642 241.905 864.61 239.52 857.4 237.82C853.439 236.904 849.434 236.189 845.4 235.68C841.12 235.14 836.77 235.07 832.53 234.25C824.34 232.67 816.81 227.82 810.12 223.06C809.855 222.909 809.548 222.847 809.245 222.885C808.942 222.923 808.659 223.058 808.44 223.27L777.33 247.68C777.156 247.853 777.032 248.07 776.97 248.307C776.909 248.545 776.912 248.794 776.98 249.03C777.513 251.315 777.476 253.695 776.873 255.962C776.269 258.229 775.118 260.313 773.52 262.03C770.63 265.2 766.94 267.52 763.52 270.03C756.41 275.33 749.41 281.37 745.81 289.69C744.008 294.121 742.82 298.777 742.28 303.53C741.57 308.61 741.08 313.72 740.52 318.82L736.94 351.07L734.94 369.17C734.27 375.17 733.46 381.25 732.94 387.3C732.943 387.666 733.088 388.017 733.346 388.277C733.604 388.536 733.954 388.685 734.32 388.69H831.24C832.572 388.787 833.908 388.787 835.24 388.69H835.42L834.42 388.28C849.311 404.421 867.735 416.896 888.25 424.73C894.099 426.957 900.097 428.772 906.2 430.16C906.491 430.228 906.797 430.201 907.072 430.083C907.347 429.965 907.576 429.762 907.727 429.503C907.878 429.245 907.943 428.945 907.911 428.648C907.879 428.35 907.752 428.071 907.55 427.85C897.912 415.549 890.401 401.721 885.33 386.94L884 388.68H895.8C900.655 388.8 905.512 388.65 910.35 388.23C922.621 386.875 934.359 382.478 944.501 375.439C954.643 368.4 962.868 358.941 968.43 347.92C969.24 346.33 966.85 344.92 966.05 346.52C959.11 360.216 947.995 371.349 934.31 378.31C927.369 381.812 919.899 384.15 912.2 385.23C907.259 385.806 902.283 386.034 897.31 385.91H884C883.788 385.912 883.579 385.963 883.389 386.058C883.199 386.153 883.033 386.29 882.904 386.459C882.775 386.628 882.686 386.823 882.643 387.031C882.601 387.24 882.607 387.455 882.66 387.66C887.895 402.889 895.646 417.133 905.59 429.8L906.94 427.48C885.737 422.588 865.999 412.731 849.35 398.72C845.233 395.263 841.32 391.57 837.63 387.66C836.92 386.91 836.36 386 835.27 385.91C835.05 385.91 834.81 385.91 834.59 385.91H741.48C739.23 385.91 736.85 385.69 734.6 385.91H734.29L735.68 387.29C736.53 376.52 738.01 365.76 739.21 355.02L742.81 322.53C743.4 317.2 743.96 311.87 744.59 306.53C745.035 301.713 746.042 296.964 747.59 292.38C750.81 283.71 757.92 277.51 765.16 272.15C769.06 269.26 773.34 266.59 776.4 262.74C777.977 260.721 779.079 258.373 779.625 255.869C780.17 253.366 780.144 250.772 779.55 248.28L779.2 249.63L810.31 225.22L808.63 225.44C814.63 229.72 821.1 233.66 828.15 235.99C831.683 237.021 835.324 237.632 839 237.81C842.68 238.12 846.33 238.51 850 239.13C857.345 240.393 864.549 242.369 871.51 245.03C877.792 247.282 883.758 250.333 889.26 254.11C898.72 260.89 905.59 270.49 912.01 280.04C915.37 285.04 918.65 290.04 922.2 294.91C925.929 299.921 929.956 304.703 934.26 309.23C945.67 321.44 956.97 333.88 966.12 347.92C967 349.4 969.41 348 968.43 346.52V346.52Z" fill="black"/>
<path d="M232.68 392.89C249.15 401.18 269.2 409.2 287.12 400.2C291.12 398.2 295.44 394.82 295.31 389.89C295.25 388.11 292.49 388.1 292.54 389.89C292.65 393.89 288.67 396.36 285.54 397.89C281.77 399.695 277.705 400.803 273.54 401.16C264.88 401.96 256.32 400.02 248.26 396.95C243.421 395.033 238.682 392.874 234.06 390.48C232.47 389.69 231.06 392.07 232.66 392.87L232.68 392.89Z" fill="black"/>
<path d="M263.2 679.72C266.17 682.582 270.08 684.267 274.2 684.46C274.547 684.431 274.87 684.272 275.106 684.015C275.342 683.759 275.472 683.423 275.472 683.075C275.472 682.727 275.342 682.391 275.106 682.135C274.87 681.878 274.547 681.72 274.2 681.69C270.828 681.501 267.635 680.11 265.2 677.77C265.069 677.642 264.913 677.541 264.743 677.473C264.573 677.405 264.391 677.371 264.207 677.374C264.024 677.376 263.843 677.414 263.674 677.487C263.506 677.559 263.353 677.664 263.225 677.795C263.097 677.926 262.996 678.082 262.928 678.252C262.86 678.422 262.826 678.604 262.828 678.788C262.831 678.971 262.869 679.152 262.942 679.321C263.014 679.489 263.119 679.642 263.25 679.77L263.2 679.72Z" fill="black"/>
<path d="M649.75 386.65C645.963 372.723 642.83 358.637 640.35 344.39C639.89 342.616 639.89 340.754 640.35 338.98C641.041 337.361 642.223 336 643.73 335.09C646.258 333.405 649.159 332.364 652.182 332.057C655.204 331.75 658.255 332.187 661.07 333.33C663.759 334.583 666.281 336.165 668.58 338.04C689.97 354.04 704.89 369.04 724.65 387.04" fill="black"/>
<path d="M188.77 739.33C132.24 759.77 94.44 677.53 87.77 636.25C81.54 598 77.45 556 91.75 519C93.97 513.27 96.47 506.37 92.75 501.45C88.86 496.23 80.58 497.16 74.94 500.45C59.92 509.11 54.72 528 51.13 545C43.75 580 37.48 615.72 40 651.4C45.69 730.1 88.5 807 157.81 841.34" fill="#E06F19"/>
<path d="M55.49 532.9C55.95 522.233 56.6 511.547 57.44 500.84C57.4765 498.359 58.0104 495.911 59.01 493.64C60.16 491.45 62.48 489.64 64.94 489.94C64.9286 488.817 65.2267 487.713 65.8015 486.749C66.3764 485.785 67.2057 484.998 68.1986 484.474C69.1915 483.95 70.3095 483.71 71.4299 483.78C72.5504 483.85 73.6299 484.227 74.55 484.87C74.6188 483.984 74.8783 483.124 75.3108 482.348C75.7434 481.572 76.3387 480.898 77.0559 480.374C77.773 479.85 78.5952 479.487 79.4658 479.31C80.3365 479.133 81.2351 479.147 82.1 479.35C82.7249 479.638 83.4158 479.751 84.1 479.68C84.6486 479.465 85.1216 479.092 85.46 478.61C89.1287 474.404 93.845 471.244 99.13 469.45C101.13 468.79 103.92 468.72 104.55 470.7C104.93 471.88 104.23 473.1 103.55 474.13C100.257 479.123 96.7667 483.97 93.08 488.67C94.19 486.96 96.82 486.87 98.54 487.97C100.26 489.07 101.25 490.97 102.05 492.86C104.28 498.07 105.59 504.27 102.89 509.25C101.69 511.222 100.2 513.002 98.47 514.53L84.27 528.37" fill="#E06F19"/>
<path d="M56.87 532.9C57.2167 525.013 57.6633 517.12 58.21 509.22C58.3478 505.372 58.6815 501.534 59.21 497.72C59.72 494.72 61.4 491.08 64.98 491.32C65.3461 491.317 65.6967 491.171 65.9565 490.913C66.2164 490.655 66.3648 490.306 66.37 489.94C66.3785 489.07 66.6244 488.218 67.0813 487.477C67.5382 486.737 68.1886 486.135 68.9625 485.736C69.7364 485.338 70.6043 485.159 71.4727 485.217C72.3411 485.276 73.1769 485.571 73.89 486.07C74.1014 486.187 74.3396 486.248 74.5814 486.246C74.8232 486.244 75.0604 486.18 75.2698 486.059C75.4793 485.938 75.6539 485.765 75.7766 485.557C75.8993 485.348 75.9659 485.112 75.97 484.87C76.0384 484.18 76.2565 483.514 76.6093 482.917C76.9621 482.32 77.4409 481.808 78.0124 481.415C78.5838 481.023 79.234 480.76 79.9176 480.645C80.6012 480.53 81.3017 480.566 81.97 480.75C82.7418 481.078 83.6001 481.141 84.4118 480.932C85.2236 480.722 85.9435 480.25 86.46 479.59C87.6655 478.216 88.9834 476.945 90.4 475.79C93.1734 473.499 96.3661 471.771 99.8 470.7C100.64 470.45 102.63 469.99 103.19 470.98C103.59 471.68 102.85 472.69 102.49 473.26C101.9 474.18 101.28 475.08 100.67 475.98C97.95 479.98 95.1 483.883 92.12 487.69L94.29 489.37C95.29 487.99 97.45 488.71 98.48 489.64C99.91 490.95 100.69 493 101.36 494.78C102.78 498.57 103.72 502.86 102.46 506.78C101.12 510.98 97 514.01 93.96 516.97L83.28 527.39C82 528.64 83.96 530.59 85.28 529.39L95.22 519.7C98.22 516.76 101.91 513.89 104.01 510.18C105.751 506.791 106.263 502.904 105.46 499.18C104.83 495.6 103.52 491.45 101.2 488.59C98.88 485.73 94.34 484.73 91.91 488.03C90.99 489.29 93.12 490.95 94.09 489.71C97.21 485.71 100.21 481.62 103.09 477.44C104.32 475.63 106.24 473.5 106.09 471.15C106.004 470.324 105.646 469.549 105.072 468.948C104.499 468.347 103.742 467.954 102.92 467.83C101.068 467.583 99.1839 467.871 97.49 468.66C93.3974 470.245 89.6589 472.624 86.49 475.66C85.76 476.36 85.09 477.11 84.41 477.85C83.95 478.37 83.82 478.48 83.13 478.29C82.6087 478.129 82.0776 478.002 81.54 477.91C80.5297 477.815 79.5108 477.924 78.5431 478.229C77.5754 478.534 76.6785 479.03 75.9052 479.687C75.1318 480.344 74.4976 481.149 74.04 482.054C73.5823 482.96 73.3103 483.948 73.24 484.96L75.32 483.77C74.1831 483.036 72.8704 482.62 71.5182 482.565C70.1661 482.51 68.8239 482.817 67.6309 483.456C66.4379 484.095 65.4378 485.042 64.7342 486.198C64.0306 487.354 63.6494 488.677 63.63 490.03L65.01 488.64C61.48 488.41 58.64 491.05 57.38 494.15C55.86 497.9 56.01 502.38 55.72 506.36C55.0533 515.233 54.5367 524.11 54.17 532.99C54.1 534.77 56.86 534.77 56.94 532.99L56.87 532.9Z" fill="#E06F19"/>
<path d="M77.88 761.32C81.67 760.4 84.88 758.24 87.93 755.86C91.47 753.09 94.93 750.18 98.32 747.27C101.71 744.36 105.16 741.35 108.52 738.32C111.61 735.54 114.73 732.77 117.52 729.71C120.554 726.547 122.99 722.861 124.71 718.83C125.38 717.18 122.71 716.47 122.04 718.1C119.16 725.17 113.15 730.39 107.62 735.39C101.307 741.13 94.8267 746.71 88.18 752.13C84.85 754.85 81.4 757.62 77.18 758.66C75.45 759.07 76.18 761.74 77.92 761.32H77.88Z" fill="black"/>
<path d="M185.68 743.15C189.21 755.29 201.08 762.93 212.27 767.22C224.36 771.85 238.27 772.46 249.8 765.95C255.556 762.783 260.189 757.909 263.06 752C263.82 750.4 261.43 749 260.67 750.61C255.94 760.66 245.35 766.86 234.49 767.85C222.12 768.97 209.1 764.42 199.26 757.02C194.31 753.3 190.1 748.41 188.35 742.38C188.253 742.026 188.02 741.725 187.701 741.543C187.382 741.361 187.004 741.313 186.65 741.41C186.296 741.507 185.995 741.74 185.813 742.059C185.631 742.378 185.583 742.756 185.68 743.11V743.15Z" fill="black"/>
<path d="M326 868.27C334.5 859.63 343.06 850.86 349.31 840.38C349.396 840.084 349.382 839.769 349.27 839.482C349.157 839.195 348.953 838.954 348.689 838.796C348.425 838.638 348.115 838.573 347.81 838.61C347.504 838.646 347.219 838.784 347 839C340.87 849.28 332.47 857.86 324.12 866.34C322.87 867.61 324.83 869.57 326.12 868.29L326 868.27Z" fill="black"/>
<path d="M394.49 433.17C391.965 448.946 387.366 464.319 380.81 478.89C378.93 483.043 376.9 487.116 374.72 491.11C373.87 492.67 376.25 494.11 377.11 492.5C384.843 478.328 390.67 463.197 394.44 447.5C395.52 443 396.423 438.463 397.15 433.89C397.43 432.15 394.77 431.4 394.49 433.16V433.17Z" fill="black"/>
<path d="M473.25 383.11C473.93 374.39 472.91 365.58 473.99 356.9C474.887 349.758 477.192 342.865 480.77 336.62C481.608 334.909 482.863 333.437 484.42 332.34C485.208 331.811 486.143 331.544 487.091 331.579C488.039 331.613 488.952 331.946 489.7 332.53C491.18 333.93 491.09 336.27 490.84 338.29C490.254 342.871 489.376 347.411 488.21 351.88C496.81 357.28 500.14 369.63 495.44 378.63" fill="#E06F19"/>
<path d="M474.63 383.11C475.4 372.81 473.93 362.37 476.21 352.19C477.259 347.485 478.941 342.943 481.21 338.69C482.21 336.81 483.33 334.51 485.28 333.45C487.23 332.39 489.17 333.03 489.54 335.19C489.96 337.64 489.19 340.47 488.76 342.88C488.26 345.78 487.63 348.66 486.89 351.51C486.817 351.803 486.838 352.112 486.951 352.392C487.065 352.673 487.264 352.91 487.52 353.07C495.52 358.18 498.52 369.5 494.25 377.93C493.44 379.51 495.83 380.93 496.64 379.32C499.023 374.418 499.555 368.819 498.136 363.556C496.717 358.293 493.444 353.72 488.92 350.68L489.56 352.24C490.31 349.32 490.96 346.36 491.47 343.38C491.91 340.86 492.56 338.11 492.35 335.54C492.17 333.31 491.12 331.25 488.9 330.48C487.816 330.17 486.671 330.142 485.574 330.4C484.477 330.657 483.463 331.191 482.63 331.95C480.68 333.59 479.44 336.05 478.3 338.29C477.026 340.796 475.94 343.393 475.05 346.06C473.3 351.444 472.327 357.051 472.16 362.71C471.9 369.51 472.38 376.32 471.87 383.11C471.74 384.89 474.51 384.88 474.64 383.11H474.63Z" fill="#E06F19"/>
<path d="M484.72 352.67C491.636 342.063 500.824 333.127 511.62 326.51C513.43 325.4 516.32 324.63 517.24 326.51C517.86 327.79 516.97 329.25 516.13 330.39L503.94 346.79C508.267 342.93 512.72 339.21 517.3 335.63C519.22 334.14 522.78 333.14 523.41 335.49C523.71 336.61 522.93 337.71 522.21 338.62L510.21 353.62L522.94 342.85C523.8 342.13 524.81 341.36 525.94 341.56C528.31 341.99 527.73 345.56 526.48 347.62C523.206 352.984 519.433 358.026 515.21 362.68L525.07 355.68C525.854 354.97 526.872 354.575 527.93 354.57C528.618 354.74 529.222 355.154 529.628 355.735C530.034 356.316 530.216 357.025 530.14 357.73C529.94 359.137 529.39 360.471 528.54 361.61C523.76 369.26 518.81 376.89 512.54 383.33C506.27 389.77 498.32 395 489.5 396.92" fill="#E06F19"/>
<path d="M485.91 353.37C490.411 346.494 495.885 340.306 502.16 335C505.334 332.282 508.729 329.833 512.31 327.68C513.02 327.26 515.31 326.03 515.97 327.1C516.39 327.84 515.45 328.97 515.05 329.54C514.29 330.61 513.48 331.65 512.7 332.7L502.7 346.1C501.7 347.42 503.76 348.77 504.87 347.78C507.823 345.153 510.823 342.59 513.87 340.09C515.32 338.816 516.836 337.617 518.41 336.5C519.16 336.01 520.63 335.19 521.58 335.5C522.87 335.92 520.96 337.92 520.58 338.43L516.88 343.03L509.18 352.62C508.921 352.885 508.779 353.242 508.784 353.613C508.788 353.983 508.94 354.336 509.205 354.595C509.47 354.854 509.827 354.996 510.198 354.991C510.568 354.987 510.921 354.835 511.18 354.57L520.36 346.81L522.8 344.76C523.421 344.131 524.116 343.581 524.87 343.12C526.1 342.52 526.25 343.51 526.11 344.53C525.844 345.812 525.301 347.02 524.52 348.07C523.54 349.63 522.517 351.157 521.45 352.65C519.212 355.789 516.791 358.795 514.2 361.65C513.2 362.75 514.52 364.78 515.87 363.83L522.38 359.22L525.54 356.98C526.25 356.48 527.47 355.38 528.28 356.25C529.81 357.9 527.34 360.84 526.47 362.25C525.14 364.36 523.81 366.45 522.42 368.51C517.1 376.51 510.98 384.14 502.96 389.51C498.778 392.379 494.093 394.435 489.15 395.57C487.42 395.95 488.15 398.62 489.89 398.24C500.2 395.96 508.99 389.45 515.89 381.66C519.59 377.361 522.969 372.795 526 368C527.628 365.686 529.131 363.286 530.5 360.81C531.55 358.75 531.93 356.13 530.17 354.31C527.91 351.96 525.17 353.82 523.09 355.31L514.42 361.46L516.09 363.63C519.249 360.13 522.169 356.422 524.83 352.53C526.69 349.81 529.55 346.37 528.73 342.79C528.596 342.098 528.243 341.467 527.722 340.992C527.201 340.516 526.542 340.221 525.84 340.15C523.84 339.95 522.23 341.57 520.78 342.79L509.17 352.61L511.17 354.56L520.73 342.67C522.47 340.51 527.46 335.57 523.27 333.18C520.2 331.42 516.67 334.38 514.43 336.18C510.523 339.293 506.703 342.513 502.97 345.84L505.14 347.52L515.4 333.72C516.74 331.91 518.84 329.84 518.83 327.44C518.821 326.976 518.72 326.518 518.534 326.093C518.347 325.668 518.078 325.285 517.743 324.964C517.407 324.643 517.012 324.392 516.579 324.225C516.146 324.058 515.684 323.978 515.22 323.99C513.279 324.117 511.418 324.812 509.87 325.99C507.87 327.25 505.933 328.583 504.06 329.99C495.989 336.07 489.044 343.516 483.54 351.99C482.54 353.48 484.95 354.87 485.92 353.39L485.91 353.37Z" fill="#E06F19"/>
<path d="M636.21 349L627.78 343.65C624.12 341.33 619.98 338.02 620.62 333.74C620.808 333.091 620.855 332.409 620.76 331.74C620.454 331.077 620.023 330.479 619.49 329.98C619.144 329.49 618.902 328.935 618.779 328.347C618.657 327.76 618.657 327.154 618.779 326.567C618.901 325.98 619.142 325.424 619.488 324.934C619.834 324.444 620.277 324.031 620.79 323.72C619.22 322.47 617.55 321.09 617.01 319.15C616.47 317.21 617.78 314.68 619.78 314.79C619.144 314.586 618.559 314.245 618.068 313.792C617.577 313.339 617.191 312.783 616.937 312.165C616.682 311.547 616.566 310.881 616.596 310.213C616.626 309.546 616.801 308.893 617.11 308.3C618.86 305.37 623.11 305.47 626.45 305.94C632.29 306.76 638.21 307.59 643.61 309.94C649.01 312.29 653.93 316.4 655.92 321.94C657.56 326.54 657.05 331.64 655.84 336.38C654.69 340.83 652.51 345.58 648.24 347.28C644.79 348.65 640.64 347.73 637.43 349.59" fill="#E06F19"/>
<path d="M636.91 347.79C634 345.94 631.07 344.12 628.17 342.25C626.09 340.91 623.9 339.33 622.66 337.14C622.084 336.16 621.848 335.017 621.99 333.89C622.18 332.47 622.33 331.34 621.42 330.13C620.76 329.26 620.05 328.65 620.06 327.47C620.061 326.958 620.193 326.455 620.443 326.009C620.694 325.562 621.054 325.188 621.49 324.92C621.673 324.813 621.829 324.666 621.946 324.49C622.062 324.314 622.137 324.113 622.164 323.904C622.191 323.694 622.17 323.481 622.102 323.281C622.033 323.081 621.92 322.899 621.77 322.75C620.51 321.75 618.91 320.59 618.4 318.97C618.09 317.97 618.47 316.2 619.78 316.18C620.105 316.165 620.415 316.037 620.656 315.818C620.896 315.599 621.052 315.302 621.096 314.979C621.14 314.657 621.069 314.329 620.896 314.053C620.724 313.777 620.46 313.571 620.15 313.47C619.661 313.313 619.217 313.039 618.857 312.672C618.497 312.305 618.233 311.856 618.086 311.363C617.939 310.87 617.915 310.349 618.015 309.845C618.115 309.341 618.336 308.869 618.66 308.47C620.24 306.69 623.32 306.94 625.45 307.16C631.64 307.83 638.29 308.84 643.94 311.57C648.88 313.95 653.38 317.9 654.94 323.33C655.737 326.468 655.823 329.745 655.19 332.92C654.768 335.743 653.915 338.486 652.66 341.05C652.073 342.35 651.204 343.502 650.116 344.424C649.028 345.346 647.749 346.014 646.37 346.38C643.12 347.12 639.79 346.72 636.76 348.38C635.19 349.23 636.59 351.62 638.15 350.77C641.24 349.09 644.99 349.87 648.25 348.77C651.065 347.699 653.391 345.636 654.79 342.97C656.361 340.012 657.41 336.805 657.89 333.49C658.641 329.753 658.5 325.892 657.48 322.22C655.48 315.95 650.21 311.33 644.33 308.76C640.737 307.254 636.977 306.184 633.13 305.57C629.761 304.825 626.329 304.406 622.88 304.32C619.8 304.4 616.29 305.59 615.4 308.9C615.026 310.389 615.23 311.964 615.973 313.308C616.715 314.652 617.94 315.664 619.4 316.14L619.76 313.42C618.58 313.497 617.475 314.029 616.679 314.903C615.883 315.778 615.456 316.927 615.49 318.11C615.49 320.98 617.73 323.06 619.8 324.71L620.08 322.54C618.959 323.22 618.101 324.259 617.646 325.488C617.19 326.717 617.163 328.064 617.57 329.31C617.774 329.914 618.086 330.476 618.49 330.97C619.08 331.69 619.49 331.97 619.34 332.97C619.065 334.413 619.175 335.903 619.66 337.29C620.75 340.09 623.12 342.13 625.52 343.82C628.74 346.09 632.17 348.08 635.52 350.19C637.03 351.19 638.41 348.75 636.91 347.8V347.79Z" fill="#E06F19"/>
<path d="M643.73 312.82L628.63 263.68C628.616 263.273 628.513 262.874 628.33 262.511C628.147 262.147 627.888 261.828 627.569 261.574C627.251 261.321 626.882 261.139 626.486 261.041C626.091 260.944 625.68 260.933 625.28 261.01C614.803 261.284 604.396 262.808 594.28 265.55C593.418 265.709 592.613 266.096 591.95 266.67C590.72 267.94 591.15 270.02 591.67 271.67L607.95 324.67C608.67 327.01 609.57 329.58 611.72 330.75C613.56 331.75 615.81 331.42 617.88 331.07L637.15 327.78C638.47 327.656 639.745 327.235 640.88 326.55C641.435 326.19 641.856 325.657 642.077 325.033C642.298 324.409 642.306 323.729 642.1 323.1C643.82 324.1 646.1 321.52 644.93 319.92" fill="black"/>
<path d="M645.07 312.45L632.6 271.9C631.6 268.72 630.87 265.35 629.6 262.28C628.33 259.21 625.05 259.6 622.14 259.75C615.334 260.091 608.565 260.95 601.89 262.32C600.32 262.64 598.74 262.99 597.18 263.38C595.583 263.689 594.014 264.13 592.49 264.7C589.85 265.83 589.49 268.47 590.04 271.03C590.81 274.36 592.04 277.64 593.04 280.92L596.19 291.18L602.35 311.24L605.43 321.24C606.27 323.96 606.88 327.04 608.43 329.46C610.2 332.2 613.02 333.07 616.17 332.72C619.91 332.31 623.65 331.49 627.37 330.86C631.09 330.23 634.95 329.74 638.66 328.92C641.46 328.3 644.54 326.01 643.4 322.76L641.4 324.32C644.4 325.68 647.93 322.25 646.13 319.24C645.929 318.956 645.629 318.757 645.289 318.684C644.948 318.61 644.593 318.667 644.292 318.843C643.992 319.019 643.769 319.301 643.666 319.634C643.564 319.967 643.59 320.326 643.74 320.64C644.01 321.09 643.39 322.19 642.8 321.93C641.8 321.48 640.33 322.24 640.8 323.49C641.8 326.24 636.46 326.49 634.89 326.8L625.73 328.36C622.73 328.87 619.73 329.46 616.73 329.89C614.02 330.28 611.81 329.89 610.47 327.31C609.26 325 608.71 322.31 607.95 319.79L605.16 310.71L599.67 292.8L594 274.69C593.59 273.35 593.13 272.01 592.78 270.69C592.5 269.69 592.16 268.19 593.2 267.45C594.24 266.71 595.81 266.6 596.96 266.32C598.44 265.94 599.93 265.607 601.43 265.32C607.363 264.049 613.378 263.194 619.43 262.76C620.87 262.66 622.32 262.59 623.77 262.53C624.511 262.45 625.259 262.45 626 262.53C626.72 262.68 626.89 263.17 627.13 263.83C628.13 266.75 628.96 269.83 629.88 272.76L642.34 313.31C642.86 315.01 645.53 314.31 645.01 312.58L645.07 312.45Z" fill="black"/>
<path d="M637.9 349.52C641.66 352.74 647.47 352.75 651.83 350.41C656.19 348.07 659.21 343.77 661.12 339.21C663.82 332.74 664.47 325.11 661.41 318.8C658.35 312.49 651.08 308.05 644.24 309.59C643.645 309.676 643.087 309.929 642.63 310.32C641.39 311.54 642.37 313.6 643.4 314.99C645.04 317.19 646.75 319.337 648.53 321.43C643.77 321.91 642.78 326.78 640 330.67C637.55 334.12 633.52 335.67 636.11 339.06" fill="#E06F19"/>
<path d="M636.93 350.5C641.7 354.44 648.63 354.21 653.7 350.9C659.05 347.4 662.4 341.25 663.92 335.17C665.48 328.9 665.18 321.74 661.53 316.17C658.38 311.38 652.92 307.88 647.08 307.86C644.08 307.86 639.9 308.86 640.79 312.75C641.315 314.401 642.196 315.916 643.37 317.19C644.72 318.95 646.12 320.68 647.55 322.37L648.55 320.01C643.62 320.63 641.98 324.84 639.68 328.62C638.42 330.7 636.57 332.14 635.1 334.02C634.403 334.797 634.004 335.796 633.973 336.839C633.942 337.882 634.281 338.903 634.93 339.72C635.93 341.15 638.37 339.77 637.32 338.32C637.079 338.09 636.902 337.801 636.805 337.482C636.709 337.163 636.697 336.825 636.77 336.5C637.133 335.792 637.632 335.163 638.24 334.65C639.696 333.264 640.981 331.71 642.07 330.02C643.67 327.39 645.07 323.22 648.55 322.77C648.822 322.766 649.087 322.684 649.312 322.532C649.538 322.38 649.714 322.166 649.82 321.916C649.926 321.666 649.957 321.39 649.909 321.123C649.861 320.855 649.736 320.608 649.55 320.41C648.55 319.24 647.55 318.06 646.63 316.85C645.578 315.675 644.65 314.395 643.86 313.03C643.3 311.89 643.33 311.19 644.64 310.88C645.805 310.625 647.003 310.555 648.19 310.67C650.536 310.966 652.782 311.797 654.755 313.099C656.728 314.401 658.376 316.139 659.57 318.18C662.35 322.82 662.62 328.6 661.44 333.77C660.3 338.77 657.92 343.77 654.06 347.16C650.06 350.74 643.38 352.16 638.92 348.51C637.56 347.38 635.59 349.33 636.92 350.46L636.93 350.5Z" fill="#E06F19"/>
<path d="M641 308.3C639.914 309.463 639.26 310.963 639.147 312.55C639.034 314.137 639.47 315.715 640.38 317.02C641.022 318.029 641.788 318.953 642.66 319.77C643.66 320.77 645.27 321.54 645.82 322.87L647.16 321.12C643.56 321.25 640.9 323.95 639.68 327.12C639.05 328.79 641.68 329.51 642.35 327.86C643.12 325.86 644.89 323.93 647.16 323.86C647.96 323.86 648.86 322.99 648.49 322.11C647.49 319.68 645.1 318.52 643.49 316.57C641.88 314.62 641.33 312.35 642.98 310.24C643.237 309.97 643.38 309.612 643.38 309.24C643.38 308.868 643.237 308.51 642.98 308.24C642.85 308.107 642.694 308.001 642.522 307.929C642.351 307.857 642.166 307.82 641.98 307.82C641.794 307.82 641.609 307.857 641.438 307.929C641.266 308.001 641.11 308.107 640.98 308.24L641 308.3Z" fill="black"/>
<path d="M489.6 344.83C489.442 345.651 489.225 346.46 488.95 347.25C488.73 348.19 488.88 349.178 489.37 350.01C490.28 351.47 491.94 352.39 493.02 353.74C495.16 356.473 496.227 359.895 496.02 363.36C495.93 365.14 498.69 365.14 498.79 363.36C498.968 359.765 497.991 356.208 496 353.21C495.029 351.785 493.861 350.505 492.53 349.41C491.88 348.85 491.44 348.41 491.69 347.57C492.011 346.684 492.229 345.765 492.34 344.83C492.43 343.05 489.67 343.06 489.57 344.83H489.6Z" fill="black"/>
<path d="M501.68 346.84L503.05 348.21C503.174 348.34 503.329 348.436 503.5 348.49C503.666 348.569 503.847 348.61 504.03 348.61C504.213 348.61 504.395 348.569 504.56 348.49C504.731 348.436 504.886 348.34 505.01 348.21C505.14 348.079 505.242 347.922 505.311 347.751C505.38 347.579 505.413 347.395 505.41 347.21L505.36 346.84C505.3 346.609 505.179 346.399 505.01 346.23L503.64 344.86C503.516 344.728 503.362 344.628 503.19 344.57C503.025 344.49 502.844 344.448 502.66 344.45C502.473 344.449 502.289 344.49 502.12 344.57C501.95 344.626 501.798 344.726 501.68 344.86C501.418 345.127 501.271 345.486 501.27 345.86L501.32 346.23C501.39 346.459 501.514 346.668 501.68 346.84V346.84Z" fill="black"/>
<path d="M508.54 354.73L509.23 355.41C509.348 355.544 509.5 355.645 509.67 355.7C509.835 355.79 510.022 355.832 510.21 355.82C510.394 355.83 510.578 355.788 510.74 355.7C510.91 355.645 511.062 355.544 511.18 355.41L511.4 355.13C511.528 354.923 511.594 354.684 511.59 354.44V354.07C511.528 353.838 511.404 353.627 511.23 353.46L510.55 352.77C510.426 352.641 510.271 352.544 510.1 352.49C509.934 352.411 509.753 352.37 509.57 352.37C509.387 352.37 509.206 352.411 509.04 352.49C508.869 352.544 508.714 352.641 508.59 352.77L508.38 353.05C508.254 353.262 508.188 353.504 508.19 353.75L508.24 354.12C508.3 354.351 508.421 354.562 508.59 354.73H508.54Z" fill="black"/>
<path d="M514 361.93L514.69 362.62C514.811 362.751 514.962 362.851 515.13 362.91C515.299 362.99 515.483 363.031 515.67 363.03C515.853 363.031 516.035 362.99 516.2 362.91C516.368 362.851 516.519 362.751 516.64 362.62L516.86 362.34C516.986 362.128 517.052 361.886 517.05 361.64L517 361.27C516.934 361.039 516.81 360.829 516.64 360.66L516 360C515.876 359.867 515.722 359.768 515.55 359.71C515.384 359.631 515.203 359.59 515.02 359.59C514.837 359.59 514.655 359.631 514.49 359.71C514.318 359.768 514.164 359.867 514.04 360L513.83 360.28C513.703 360.491 513.637 360.733 513.64 360.98V361.34C513.698 361.572 513.819 361.783 513.99 361.95L514 361.93Z" fill="black"/>
<path d="M92.79 486.7C91.6009 486.797 90.4983 487.36 89.7227 488.267C88.9472 489.174 88.5616 490.35 88.65 491.54C88.8 494.64 91.2 496.63 92.82 499.03L93.65 497.03C89.525 498.065 85.7967 500.294 82.9314 503.437C80.066 506.58 78.1907 510.497 77.54 514.7C77.3 516.44 79.97 517.2 80.21 515.44C80.7411 511.705 82.3724 508.212 84.896 505.407C87.4196 502.602 90.7212 500.612 94.38 499.69C94.5794 499.632 94.7632 499.53 94.9178 499.391C95.0725 499.252 95.1941 499.081 95.2737 498.889C95.3533 498.697 95.389 498.49 95.3779 498.282C95.3669 498.075 95.3095 497.873 95.21 497.69C94.21 496.2 92.85 494.94 91.99 493.35C91.42 492.3 90.87 489.65 92.79 489.53C94.56 489.41 94.57 486.64 92.79 486.76V486.7Z" fill="black"/>
<path d="M69.68 506C70.7394 505.473 71.6831 504.74 72.4558 503.843C73.2284 502.947 73.8146 501.906 74.18 500.78C74.2266 500.603 74.2376 500.418 74.2125 500.237C74.1874 500.055 74.1267 499.88 74.0337 499.722C73.9408 499.564 73.8175 499.426 73.671 499.316C73.5245 499.206 73.3576 499.126 73.18 499.08C72.821 498.994 72.4425 499.05 72.1238 499.236C71.8051 499.423 71.5708 499.725 71.47 500.08C71.4104 500.271 71.3403 500.458 71.26 500.64L71.4 500.31C71.1417 500.905 70.8054 501.464 70.4 501.97L70.62 501.69C70.2351 502.176 69.7955 502.615 69.31 503L69.59 502.78C69.1827 503.092 68.7436 503.36 68.28 503.58C67.9663 503.768 67.739 504.071 67.6473 504.425C67.5556 504.778 67.6068 505.154 67.79 505.47C67.981 505.78 68.2836 506.004 68.6352 506.097C68.9869 506.19 69.3609 506.145 69.68 505.97V506Z" fill="black"/>
<path d="M78.79 495.3C78.79 495.43 78.79 495.57 78.74 495.7L78.79 495.33C78.7399 495.732 78.6597 496.13 78.55 496.52C78.55 496.7 78.45 496.88 78.39 497.06C78.313 497.233 78.2462 497.409 78.19 497.59C78.28 497.38 78.29 497.35 78.19 497.48V497.59L78.07 497.85L77.8 498.35C77.6008 498.699 77.3769 499.033 77.13 499.35C77.0371 499.506 76.9763 499.68 76.9511 499.86C76.926 500.04 76.937 500.224 76.9835 500.4C77.0301 500.576 77.1112 500.741 77.2222 500.885C77.3332 501.029 77.4719 501.15 77.63 501.24C77.7898 501.334 77.9669 501.395 78.1508 501.419C78.3346 501.443 78.5214 501.43 78.7 501.38C79.0338 501.263 79.3213 501.042 79.52 500.75C80.6765 499.149 81.3686 497.259 81.52 495.29C81.5214 495.104 81.4858 494.92 81.4154 494.749C81.345 494.577 81.2412 494.421 81.11 494.29C80.9787 494.16 80.8225 494.057 80.6507 493.988C80.4789 493.92 80.295 493.886 80.11 493.89C79.7464 493.898 79.3999 494.045 79.1427 494.303C78.8855 494.56 78.7377 494.906 78.73 495.27L78.79 495.3Z" fill="black"/>
<path d="M87.11 497.48C87.8795 496.932 88.5238 496.226 89 495.41C89.4515 494.58 89.7177 493.663 89.78 492.72C89.7838 492.535 89.7503 492.351 89.6816 492.179C89.6129 492.008 89.5103 491.851 89.38 491.72C89.2483 491.59 89.0921 491.488 88.9204 491.419C88.7486 491.351 88.5649 491.317 88.38 491.32C88.1951 491.316 88.0112 491.35 87.8394 491.419C87.6676 491.487 87.5114 491.59 87.38 491.72C87.1278 491.993 86.9823 492.348 86.97 492.72C86.975 492.81 86.975 492.9 86.97 492.99V492.63C86.9028 493.066 86.7853 493.492 86.62 493.9L86.76 493.57C86.5896 493.957 86.3749 494.323 86.12 494.66L86.34 494.38C86.0794 494.711 85.7807 495.009 85.45 495.27L85.73 495.06H85.68C85.38 495.255 85.1572 495.549 85.05 495.89C84.9546 496.248 85.005 496.629 85.19 496.95C85.3709 497.265 85.6695 497.495 86.02 497.59C86.1967 497.642 86.3823 497.656 86.5649 497.632C86.7474 497.608 86.9229 497.546 87.08 497.45L87.11 497.48Z" fill="black"/>
</svg>
