<svg id="Layer_1" data-name="Layer 1" xmlns="http://www.w3.org/2000/svg" viewBox="0 0 164.91 151.57"><defs><style>.cls-1{fill:#fff;}.cls-2{fill:#174c6f;}</style></defs><rect class="cls-1" x="28.86" y="15.48" width="26.07" height="34.87" rx="12.04"/><rect class="cls-1" x="98.23" y="15.48" width="26.07" height="34.87" rx="12.04"/><circle class="cls-1" cx="123.52" cy="110.71" r="25.38"/><rect class="cls-1" x="21.83" y="32.2" width="108.71" height="92.47" rx="5.39"/><path class="cls-2" d="M16,80.92q0-19.65,0-39.29c0-3.54.65-6.74,4.24-8.43C27,30,31,32.45,31.21,39.89c.24,7.67,4.34,12.24,11,12.28,7.13,0,11-4.27,11.25-12.47.21-7.47.21-7.48,7.75-7.49q15.36,0,30.73,0c7.8,0,7.8,0,8,7.71.19,7.12,4,11.74,10.1,12.22,7.37.57,12.3-4,12.63-11.74.16-3.83-1.23-8.55,5.49-8.18s9.11,2.62,9.13,9.21c0,14.27-.08,28.55.07,42.81,0,3.86-.67,4.93-4.84,3.65-4.45-1.36-6.46-3.35-5.91-8.11.39-3.32-.07-6.72.11-10.07.2-3.91-1.53-5.46-5.36-5.4-7.39.1-14.77,0-22.16,0q-32.74,0-65.47,0c-6.19,0-6.53.36-6.54,6.61,0,14.1.12,28.21-.08,42.31-.07,4.81,1.71,6.41,6.5,6.36,20.15-.2,40.29-.09,60.44-.08,4.16,0,10.58,4.92,11.48,8.69.34,1.45-.53,1.78-1.63,1.82-1.84.08-3.69.07-5.54.07q-36,0-72,0c-8.4,0-10.34-2-10.36-10.41Q16,100.31,16,80.92Z"/><path class="cls-2" d="M123.6,90.22c11.8,0,21.38,8.92,21.55,20s-9.62,20.88-21.26,20.92c-12.17.05-21.55-8.8-21.61-20.37S111.5,90.21,123.6,90.22Zm13.85,14a2.31,2.31,0,0,0-.86-2.56,2.41,2.41,0,0,0-3.2.42c-2.12,1.89-4.17,3.85-6.28,5.77s-4.26,5.3-6.75,5.71c-3.69.6-3.7-4.36-5.85-6.46-1.1-1.08-2.09-2.38-3.81-1.23s-1.34,2.55-.51,4c1.69,2.88,3.47,5.72,5.15,8.61,2.08,3.55,4.55,3.53,7.31.87q6.67-6.45,13.28-13A14,14,0,0,0,137.45,104.17Z"/><path class="cls-2" d="M118.69,41.94c-.74,3.86-3.24,6.34-7.26,6.38a7,7,0,0,1-7.4-6.17,53.11,53.11,0,0,1,0-16c.56-3.82,3.09-6.32,7.22-6.36,4.38,0,6.82,2.61,7.49,6.65.43,2.59.08,5.32.08,8"/><path class="cls-2" d="M35.05,33.87c0-2.34-.16-4.7,0-7,.36-4.27,2.73-6.88,7.09-7s7.08,2.35,7.38,6.62a115,115,0,0,1,0,15.08c-.28,4.27-3.07,6.79-7.32,6.77s-6.8-2.62-7.17-6.92C34.88,38.92,35.06,36.39,35.05,33.87Z"/><path class="cls-2" d="M43.35,99.57c-9,0-11.48-3.53-9.22-11.14a3.2,3.2,0,0,1,2.72-2.55,28.62,28.62,0,0,1,10.44.06c3.86.86,3.06,4.26,3.12,7s.33,5.62-3.3,6.33A24.06,24.06,0,0,1,43.35,99.57Z"/><path class="cls-2" d="M65,85.56c7.72,0,8.6.68,8.65,6.83,0,6.38-.89,7.19-8.3,7.17-7.62,0-8.19-.51-8.18-7.12S57.63,85.57,65,85.56Z"/><path class="cls-2" d="M88.59,85.56c7.4,0,8.28.8,8.23,7.23,0,6.1-1,6.84-8.69,6.78-7.26-.06-7.84-.62-7.78-7.54C80.4,86,80.94,85.53,88.59,85.56Z"/><path class="cls-2" d="M41.93,69.14c8,0,8.39.58,8.58,7.16.14,4.81-1.81,6.83-6.54,6.37-1-.09-2,0-3,0-6.22-.07-9.71-6.22-6.49-11.7C36.32,67.82,39.67,69.7,41.93,69.14Z"/><path class="cls-2" d="M65,69.14c8.3,0,9.39,1.27,8.63,9.06-.28,2.8-1.46,4.35-4.35,4.41-1.34,0-2.67,0-4,0-7.53,0-10.56-4.19-7.83-11.15C59,67.56,62.7,69.82,65,69.14Z"/><path class="cls-2" d="M87.93,69.15c8.33,0,8.87.32,8.84,6.23,0,2.53,1,6.08-2.54,6.8-4.17.85-9.1,2-12.59-.85-2.83-2.3-1.75-6.78-.83-10C81.85,67.71,85.69,69.69,87.93,69.15Z"/><path class="cls-2" d="M111.54,69.14c8,0,8.52.63,8.55,7.7,0,4.37-1.85,6.15-6.07,5.83-1-.08-2,0-3,0-6.81,0-10-4.92-7.14-11.29C105.53,67.62,109.2,69.78,111.54,69.14Z"/><path class="cls-2" d="M42,116c-7.75,0-10-3-7.9-10.57a3.5,3.5,0,0,1,3.6-2.84c2.68-.1,5.36-.08,8-.08,5.14,0,4.61,3.75,4.69,7.11s-.26,6.56-4.91,6.39C44.37,116,43.2,116,42,116Z"/><path class="cls-2" d="M65.17,116c-7.67,0-10-3.12-7.85-10.6A3.54,3.54,0,0,1,61,102.59c2.85-.09,5.7-.18,8.54,0,4.84.27,4,4,4.12,7.12s0,6.28-4.45,6.3Z"/><path class="cls-2" d="M88.39,116c-7.71,0-10-3.06-7.89-10.59a3.5,3.5,0,0,1,3.63-2.82c2.67-.1,5.35-.08,8-.08,5.15,0,4.58,3.78,4.66,7.13s-.27,6.55-4.92,6.36C90.73,116,89.56,116,88.39,116Z"/></svg>