<svg id="Layer_1" data-name="Layer 1" xmlns="http://www.w3.org/2000/svg" viewBox="0 0 164.91 151.57"><defs><style>.cls-1,.cls-3{fill:#174c6f;}.cls-2{fill:#fff;}.cls-3,.cls-4{stroke:#fff;stroke-miterlimit:10;stroke-width:4px;}.cls-4{fill:none;stroke-linecap:round;}</style></defs><circle class="cls-1" cx="48.03" cy="56.68" r="19.31"/><circle class="cls-1" cx="117.75" cy="55.39" r="19.31"/><circle class="cls-1" cx="117.59" cy="56.2" r="15.07"/><path class="cls-1" d="M16.45,113.71l24,.08,2.63,3.92h80.26l-.78-3.89h26.6s3.53-32.38-36.2-32.38c-12.11,0-22-.73-29.95-.76-21.74-.1-29.24.43-29.24.43S16.45,79.78,16.45,113.71Z"/><g id="TJwERG"><path class="cls-1" d="M83,75.4c16,.58,29.43,6.09,38.66,19.85a31.77,31.77,0,0,1,5,17c.09,2.33.2,5.46-3.32,5.54s-2.91-3-2.79-5.08c.94-16.41-14.45-29.41-33-31.27a42.17,42.17,0,0,0-28.19,6.67c-8.73,5.79-14.08,13.58-13.87,24.52,0,2.12.8,5.16-2.76,5.12-3.37,0-2.89-3-2.89-5.19-.06-15.11,8.18-24.93,20.76-31.69A45.66,45.66,0,0,1,83,75.4Z"/><path class="cls-1" d="M83.31,93.31c13.62.06,23.83,10.4,23.82,24.11s-10.53,24.15-24.46,24a24.07,24.07,0,0,1,.64-48.14Zm0,42.49A18.5,18.5,0,0,0,102,117.5a18.89,18.89,0,0,0-18.8-18.87c-10.54-.08-18.63,8.07-18.62,18.75S72.57,135.88,83.36,135.8Z"/><path class="cls-1" d="M49.63,42.29c-6.81-.27-12.21,3.25-14.41,9.1a13.7,13.7,0,0,0,4,15.25C43.83,70.56,49.9,71,55.39,67.82A25,25,0,0,1,59,65.74c.89-.34,1.63.49,2,1.3,1,1.92-.45,3-1.67,3.92a17.31,17.31,0,0,1-17.87,2.63A18.17,18.17,0,0,1,29.56,58.73,18.66,18.66,0,0,1,49.22,37.48c2.1.15,5.27-.25,5,3.11S51,42,49.63,42.29Z"/><path class="cls-1" d="M116.47,42.31c-1.75,0-4.26,1.41-4.56-1.68s2.48-2.92,4.45-3.13a18.77,18.77,0,0,1,18.73,10.92,18.73,18.73,0,0,1-25.68,24.37,20.78,20.78,0,0,1-3.4-2.45c-1.19-1-1.69-2.24-.59-3.66s2.34-1,3.6-.05c3.53,2.6,7.4,4,11.83,2.94,7.42-1.78,12-8.43,10.8-15.72S124.3,41.85,116.47,42.31Z"/><path class="cls-1" d="M83.11,129.63c-2.41-.06-2.93-1.8-2.81-3.62.25-4.15-1.21-6.29-5.68-5.92-1.76.14-3.74-.2-3.8-2.62-.08-2.79,2.1-3,4-2.88,4.24.35,5.65-1.62,5.42-5.59-.11-2,.24-4.07,3-3.89,2.48.16,2.63,2.19,2.47,3.89-.44,4.54,1.76,5.9,5.89,5.62,1.83-.13,3.63.38,3.59,2.81,0,2.08-1.61,2.76-3.25,2.61-4.86-.45-6.73,1.66-6.27,6.4C85.93,128.13,85.21,129.58,83.11,129.63Z"/></g><circle class="cls-2" cx="83.04" cy="117.22" r="20.42"/><path class="cls-1" d="M83.11,129.63c-2.41-.06-2.93-1.8-2.81-3.62.25-4.15-1.21-6.29-5.68-5.92-1.76.14-3.74-.2-3.8-2.62-.08-2.79,2.1-3,4-2.88,4.24.35,5.65-1.62,5.42-5.59-.11-2,.24-4.07,3-3.89,2.48.16,2.63,2.19,2.47,3.89-.44,4.54,1.76,5.9,5.89,5.62,1.83-.13,3.63.38,3.59,2.81,0,2.08-1.61,2.76-3.25,2.61-4.86-.45-6.73,1.66-6.27,6.4C85.93,128.13,85.21,129.58,83.11,129.63Z"/><circle class="cls-3" cx="83.04" cy="47.31" r="24.09"/><path class="cls-4" d="M104.61,78s24.24,10.73,24.24,37.53"/><path class="cls-4" d="M63.67,77.19S37.26,88.88,37.26,118.07"/></svg>