<svg id="Layer_1" data-name="Layer 1" xmlns="http://www.w3.org/2000/svg" viewBox="0 0 164.91 151.57"><defs><style>.cls-1{fill:#fff;}.cls-2{fill:#174c6f;}</style></defs><rect class="cls-1" x="37.45" y="46.7" width="92.05" height="82.99"/><g id="_6qvhQ6" data-name="6qvhQ6"><path class="cls-2" d="M137.5,82.23q0,20.43,0,40.87c0,8.86-5,13.83-13.89,13.83q-41.19,0-82.38,0c-8.87,0-13.82-5-13.83-13.89q0-41,0-82.06c0-9.31,4.83-14.2,14.24-14.08,3.13,0,4.41-.91,4-4a9,9,0,0,1,0-2.26,6.6,6.6,0,0,1,6.56-6,6.44,6.44,0,0,1,6.08,6c.61,6.15.61,6.15,7,6.15,12.54,0,25.08-.08,37.62.06,2.86,0,4-.85,3.64-3.69a9.78,9.78,0,0,1,0-1.95c.2-3.83,2.79-6.59,6.18-6.62,3.56,0,6.31,2.79,6.52,6.69a4.68,4.68,0,0,1,0,.65c0,5.34-.06,4.83,5,4.87,8,.07,13.17,5.2,13.19,13.22C137.53,54.12,137.5,68.17,137.5,82.23ZM82.55,57.79c-13,0-26,.06-38.93,0-2.7,0-3.53.83-3.52,3.52.1,18.49,0,37,.06,55.48,0,5.36,2.1,7.43,7.48,7.44h69.75c5.19,0,7.34-2.13,7.35-7.25,0-18.49,0-37,.07-55.48,0-2.8-.76-3.75-3.65-3.72C108.29,57.87,95.42,57.79,82.55,57.79Z"/><path class="cls-2" d="M61.27,105.85a6.08,6.08,0,0,1,2-4c2.75-2.75,5.39-5.63,8.29-8.22,2-1.83,2.42-3.08.12-5.07-3-2.6-5.75-5.57-8.52-8.45-2.38-2.48-2.54-5.11-.59-7.2s4.88-2,7.44.48c3,2.92,6.07,5.86,9,8.89,1.47,1.53,2.52,1.46,4-.08,2.8-3,5.76-5.88,8.7-8.74,2.65-2.58,5.3-2.77,7.42-.66s1.88,5-.52,7.51c-2.67,2.83-5.35,5.67-8.26,8.25-2.25,2-1.91,3.36.12,5.19,2.72,2.46,5.26,5.13,7.83,7.76s2.93,5.62.88,7.73-4.82,2-7.64-.77-5.77-5.57-8.47-8.52c-1.59-1.75-2.63-1.54-4.15.06-3,3.14-6.07,6.16-9.21,9.14A4.74,4.74,0,0,1,64,110.19,4.83,4.83,0,0,1,61.27,105.85Z"/></g></svg>