<svg id="Layer_1" data-name="Layer 1" xmlns="http://www.w3.org/2000/svg" viewBox="0 0 164.91 151.57"><defs><style>.cls-1{fill:#378092;stroke:#fff;stroke-miterlimit:10;stroke-width:6px;}.cls-2{fill:#174c6f;}</style></defs><g id="Z5JN1X"><path class="cls-1" d="M96.91,72.35c0,1.55,0,2.84,0,4.13-.24,17.81-.18,35.63-.17,53.44,0,2.36,0,2.36-2.38,2.35H85.83c-2.11,0-2.11,0-2.11-2.06v-32c0-.9,0-1.8,0-2.7s-.16-1.59-1.38-1.57-1.22.7-1.22,1.56q0,17.22,0,34.43c0,2.36,0,2.36-2.38,2.37H70.5c-2.39,0-2.41,0-2.41-2.33V72.21c-.55.23-.61.71-.8,1.06-1.45,2.79-2.82,5.62-4.36,8.36A6,6,0,0,1,56.76,85a5.77,5.77,0,0,1-5.25-4.42,6.52,6.52,0,0,1,.5-4.8c3.85-7.5,7.67-15,11.59-22.47a7,7,0,0,1,6.54-3.8q12.19-.07,24.4,0a7.62,7.62,0,0,1,7.24,4.62c3.54,7,7.21,14,10.82,21a7,7,0,0,1,.94,4.88,6,6,0,0,1-4.82,4.92,6.24,6.24,0,0,1-6.61-3.07C100.69,79.29,99.39,76.65,98,74A4.06,4.06,0,0,0,96.91,72.35Z"/><path class="cls-1" d="M37.28,77.38C35.86,80.18,34.49,83,33,85.77A5.67,5.67,0,0,1,27.37,89a5.38,5.38,0,0,1-4.91-4.18A5.76,5.76,0,0,1,23,80.6c3.51-6.84,7-13.68,10.56-20.48a6.35,6.35,0,0,1,5.93-3.41c5.09-.06,10.18,0,15.27,0,1.49,0,1.61.21.92,1.55-2.63,5.16-5.32,10.28-7.9,15.46a11,11,0,0,0,8,16A10.56,10.56,0,0,0,61.48,89c1.88-.72,1.9-.74,1.9,1.38q0,13,0,26c0,4.64,0,9.28,0,13.92,0,1.51-.49,2-2,1.94-2.54-.11-5.1-.13-7.63,0-1.59.08-1.92-.53-1.91-2,0-10.47,0-20.95,0-31.43,0-.69.26-1.57-.89-1.73s-1.67.34-1.66,1.59q0,15,0,30.08c0,4,.3,3.39-3.42,3.44-2,0-4.1,0-6.14,0-2.24,0-2.25,0-2.25-2.2q0-9.57,0-19.15V77.41Z"/><path class="cls-1" d="M127.45,77.92c0,2.87,0,5.75,0,8.63-.33,14.66-.11,29.33-.14,44,0,1.43-.51,1.79-1.83,1.75-2.69-.07-5.39-.1-8.08,0-1.44,0-1.92-.44-1.91-1.87,0-6.53,0-13.07,0-19.6q0-6,0-12c0-.9,0-1.73-1.27-1.7s-1.13.87-1.13,1.68q0,15.57,0,31.13c0,2.31,0,2.31-2.29,2.31h-7.19c-2,0-2,0-2-2q0-19.15,0-38.32c0-1.09-.38-2.58.18-3.18.74-.81,1.88.45,2.89.69,4.45,1,8.28,0,11.19-3.54a10.46,10.46,0,0,0,1.48-11.79c-2.46-5.23-5.22-10.32-7.85-15.48-.93-1.81-.83-2,1.21-2,4.64,0,9.28,0,13.92,0A7.36,7.36,0,0,1,132,61.09c3.07,6.16,6.3,12.24,9.46,18.35a8.05,8.05,0,0,1,1.23,4.26,5.59,5.59,0,0,1-10.44,2.5c-1.35-2.33-2.51-4.76-3.76-7.15l-.63-1.17Z"/><path class="cls-1" d="M82.61,44.76A12.94,12.94,0,0,1,69.94,31.85a12.75,12.75,0,1,1,25.5.33A12.92,12.92,0,0,1,82.61,44.76Z"/><path class="cls-1" d="M50.8,52.32A11.48,11.48,0,1,1,62.29,40.87,11.28,11.28,0,0,1,50.8,52.32Z"/><path class="cls-1" d="M114.49,52.33A11.49,11.49,0,1,1,126.06,40.9,11.44,11.44,0,0,1,114.49,52.33Z"/></g><g id="Z5JN1X-2" data-name="Z5JN1X"><path class="cls-2" d="M96.91,72.35c0,1.55,0,2.84,0,4.13-.24,17.81-.18,35.63-.17,53.44,0,2.36,0,2.36-2.38,2.35H85.83c-2.11,0-2.11,0-2.11-2.06v-32c0-.9,0-1.8,0-2.7s-.16-1.59-1.38-1.57-1.22.7-1.22,1.56q0,17.22,0,34.43c0,2.36,0,2.36-2.38,2.37H70.5c-2.39,0-2.41,0-2.41-2.33V72.21c-.55.23-.61.71-.8,1.06-1.45,2.79-2.82,5.62-4.36,8.36A6,6,0,0,1,56.76,85a5.77,5.77,0,0,1-5.25-4.42,6.52,6.52,0,0,1,.5-4.8c3.85-7.5,7.67-15,11.59-22.47a7,7,0,0,1,6.54-3.8q12.19-.07,24.4,0a7.62,7.62,0,0,1,7.24,4.62c3.54,7,7.21,14,10.82,21a7,7,0,0,1,.94,4.88,6,6,0,0,1-4.82,4.92,6.24,6.24,0,0,1-6.61-3.07C100.69,79.29,99.39,76.65,98,74A4.06,4.06,0,0,0,96.91,72.35Z"/><path class="cls-2" d="M37.28,77.38C35.86,80.18,34.49,83,33,85.77A5.67,5.67,0,0,1,27.37,89a5.38,5.38,0,0,1-4.91-4.18A5.76,5.76,0,0,1,23,80.6c3.51-6.84,7-13.68,10.56-20.48a6.35,6.35,0,0,1,5.93-3.41c5.09-.06,10.18,0,15.27,0,1.49,0,1.61.21.92,1.55-2.63,5.16-5.32,10.28-7.9,15.46a11,11,0,0,0,8,16A10.56,10.56,0,0,0,61.48,89c1.88-.72,1.9-.74,1.9,1.38q0,13,0,26c0,4.64,0,9.28,0,13.92,0,1.51-.49,2-2,1.94-2.54-.11-5.1-.13-7.63,0-1.59.08-1.92-.53-1.91-2,0-10.47,0-20.95,0-31.43,0-.69.26-1.57-.89-1.73s-1.67.34-1.66,1.59q0,15,0,30.08c0,4,.3,3.39-3.42,3.44-2,0-4.1,0-6.14,0-2.24,0-2.25,0-2.25-2.2q0-9.57,0-19.15V77.41Z"/><path class="cls-2" d="M127.45,77.92c0,2.87,0,5.75,0,8.63-.33,14.66-.11,29.33-.14,44,0,1.43-.51,1.79-1.83,1.75-2.69-.07-5.39-.1-8.08,0-1.44,0-1.92-.44-1.91-1.87,0-6.53,0-13.07,0-19.6q0-6,0-12c0-.9,0-1.73-1.27-1.7s-1.13.87-1.13,1.68q0,15.57,0,31.13c0,2.31,0,2.31-2.29,2.31h-7.19c-2,0-2,0-2-2q0-19.15,0-38.32c0-1.09-.38-2.58.18-3.18.74-.81,1.88.45,2.89.69,4.45,1,8.28,0,11.19-3.54a10.46,10.46,0,0,0,1.48-11.79c-2.46-5.23-5.22-10.32-7.85-15.48-.93-1.81-.83-2,1.21-2,4.64,0,9.28,0,13.92,0A7.36,7.36,0,0,1,132,61.09c3.07,6.16,6.3,12.24,9.46,18.35a8.05,8.05,0,0,1,1.23,4.26,5.59,5.59,0,0,1-10.44,2.5c-1.35-2.33-2.51-4.76-3.76-7.15l-.63-1.17Z"/><path class="cls-2" d="M82.61,44.76A12.94,12.94,0,0,1,69.94,31.85a12.75,12.75,0,1,1,25.5.33A12.92,12.92,0,0,1,82.61,44.76Z"/><path class="cls-2" d="M50.8,52.32A11.48,11.48,0,1,1,62.29,40.87,11.28,11.28,0,0,1,50.8,52.32Z"/><path class="cls-2" d="M114.49,52.33A11.49,11.49,0,1,1,126.06,40.9,11.44,11.44,0,0,1,114.49,52.33Z"/></g></svg>