<svg id="Layer_1" data-name="Layer 1" xmlns="http://www.w3.org/2000/svg" viewBox="0 0 654 191"><defs><style>.cls-1{fill:#004d71;fill-rule:evenodd;}</style></defs><path class="cls-1" d="M106,52.75a16,16,0,1,0,16,16A16,16,0,0,0,106,52.75ZM74.72,83.87A30.15,30.15,0,0,1,104.87,114v24.72h-15V114A15.14,15.14,0,0,0,89,109L67,131,56.37,120.4,77.62,99.15a15.41,15.41,0,0,0-2.9-.28H50v-15Zm62.94,0A30.16,30.16,0,0,0,107.5,114v24.72h15V114a15.1,15.1,0,0,1,.54-4l23,23,10.6-10.6-23.05-23a15.23,15.23,0,0,1,4-.54h24.71v-15Z"/><path d="M186.37,139.61V53.39h24.42L237,127.28h1.89V53.39h14v86.22H228.92l-26.81-74h-1.77v74Z"/><path d="M308.8,128.28l3.53-.38.25,10.2A130.31,130.31,0,0,1,287.15,141q-14,0-20.14-7.67t-6-24.55q0-33.48,27.32-33.48,26.43,0,26.43,28.83l-.88,9.81h-39c.08,5.21,1.21,9,3.4,11.46s6.25,3.65,12.2,3.65S302.51,128.79,308.8,128.28Zm-7.55-24.92q0-9.31-3-13t-9.94-3.78q-7.05,0-10.33,3.9c-2.09,2.6-3.19,6.88-3.27,12.84Z"/><path d="M355.47,88.38H338.1v27.69q0,7.68,1.14,10.2t5.79,2.52l10.32-.38.63,11A73.25,73.25,0,0,1,343.14,141q-10.69,0-14.73-4.9t-3.9-18.51V88.38h-8.06V76.68h8.06V58.43H338.1V76.68h17.37Z"/><path d="M355.52,76.68H369l9.94,51.22h2.52l12-50h14.1l11.95,50H422l9.82-51.22h13.59l-13.34,62.93H410.28l-9.82-43.17-9.82,43.17H368.87Z"/><path d="M454.15,83.47q6.54-8.18,21.65-8.18t21.52,8.18q6.54,8.19,6.55,24.55t-6.3,24.67Q491.29,141,475.8,141T454,132.69q-6.28-8.31-6.29-24.67T454.15,83.47Zm10.32,40.91q2.89,5,11.33,5t11.33-5q2.89-5,2.89-16.49t-3.14-16.23q-3-4.78-11.08-4.79t-11.2,4.79q-3,4.77-3,16.23T464.47,124.38Z"/><path d="M511.2,139.61V76.68h13.59v7.55a60,60,0,0,1,21.4-8.94V89a89,89,0,0,0-18.5,5.54l-2.77,1.13v43.93Z"/><path d="M564.11,139.61H550.39V50.5h13.72V102l7.8-.76,14.85-24.54h15.36L584,106.13l19.13,33.48H587.64l-15.35-26.56-8.18.88Z"/></svg>