<svg id="Layer_1" data-name="Layer 1" xmlns="http://www.w3.org/2000/svg" viewBox="0 0 164.91 151.57"><defs><style>.cls-1{fill:#fff;}.cls-2{fill:#174c6f;}</style></defs><path class="cls-1" d="M77.18,26.75s-33.24,8.15-22.83,51l4.39,5.39L52.33,93.72v13.11l5.35,7.79,11.46,2.48H84.61l13.59-3L103,107l-.55-18.3,14.22-16.8L119,50.45,112.07,37,89.39,24.44Z"/><path class="cls-2" d="M144.36,123.08q-16.61-16.48-33.26-32.9c-1.9-1.86-2.5-3.19-1-5.83a44.72,44.72,0,0,0,5.79-27.08C113.74,34,93.48,15.43,69.08,15.53c-.67.08-2.2.29-3.74.44C35.53,19,16.42,49.23,26.58,77.29A46,46,0,0,0,92.32,102c2.57-1.4,3.93-1.09,5.84.89,6,6.21,12.17,12.23,18.28,18.33,5.33,5.31,10.62,10.65,16,15.91,2.9,2.83,4.75,2.78,7.66,0,1.44-1.38,2.83-2.8,4.23-4.22C148.52,128.69,148.54,127.23,144.36,123.08ZM89.78,94.48C83.6,98,77.12,100.18,70,99.82c-6.2.29-11.84-1.44-17.32-4-2.63-1.22-3.56-2.46-1.48-5.14a86.18,86.18,0,0,1,7.36-8.93,3.77,3.77,0,0,1,4.14-1.1,32.14,32.14,0,0,0,17.95-.11,3.9,3.9,0,0,1,4.39,1.33,78.31,78.31,0,0,1,5.84,7.61C92.49,91.73,92.18,93.12,89.78,94.48Zm11.1-10.21c-1.28,1.76-2.1,2.24-3.48,0a53.43,53.43,0,0,0-8.67-10.44c-2.5-2.38-5.13-3.14-8.47-2A25.91,25.91,0,0,1,63,72a7.54,7.54,0,0,0-7.95,1.76A55.63,55.63,0,0,0,44.47,86c-1.34,2.15-2.27,2.15-3.81.21C34.94,79,31.78,71,32,61.73c.12-19.88,15.57-36.87,34.53-38,21.43-1.26,38.92,12.8,41.45,33.57A37,37,0,0,1,100.88,84.27Z"/><path class="cls-2" d="M92.23,107.06c-2.69.67-5.4,4.38-5.32,7.38.19,6.71-1.88,9.66-8.29,11.77-.94.31-1.91.55-2.88.77-8.08,1.83-16.28,1.7-24.44,1.14a35.24,35.24,0,0,1-13.77-3.41c-5-2.56-6.68-6-5.43-11.4a27.65,27.65,0,0,1,2.26-7.26c2.47-4.44,1-7.86-1.8-11.38-1.42-1.76-2-1.64-2.8.34C27.27,101.29,25,107.64,24,114.36a14.69,14.69,0,0,0,.07,4.29c1.35,8.35,7.33,12.24,14.58,14.69A58.38,58.38,0,0,0,59.53,136c8.67.17,16.82-.35,24.46-3.84,11.21-5.12,11.84-13.87,9.8-23.94C93.62,107.46,93.34,106.78,92.23,107.06Z"/><path class="cls-2" d="M71.28,32A18.19,18.19,0,0,0,53.06,49.76c-.11,9.82,8.35,18.38,18.1,18.33a18.42,18.42,0,0,0,18-18A18.06,18.06,0,0,0,71.28,32ZM71,61.11A11.06,11.06,0,1,1,82,50.05,11.06,11.06,0,0,1,71,61.11Z"/></svg>