<svg id="Layer_1" data-name="Layer 1" xmlns="http://www.w3.org/2000/svg" viewBox="0 0 164.91 151.57"><defs><style>.cls-1{fill:#fff;}.cls-2{fill:#174c6f;}</style></defs><rect class="cls-1" x="83.41" y="34.35" width="29.49" height="29.49" rx="14.74"/><rect class="cls-1" x="38.84" y="25.43" width="29.49" height="29.49" rx="14.74"/><path class="cls-1" d="M59.05,110h66.39s7-22.5-4.52-26.55S70.37,78,62.16,88,59.05,110,59.05,110Z"/><path class="cls-1" d="M25.34,90.35h55s5.83-18.63-3.74-22-41.85-4.49-48.64,3.77S25.34,90.35,25.34,90.35Z"/><g id="uuDeQj"><path class="cls-2" d="M77.9,116.34c-6.18,0-12.35,0-18.52,0-4.49,0-6.12-1.78-6.3-6.31A62.29,62.29,0,0,1,54,98c1.6-10.12,7.74-16.27,17.32-19.17,11.52-3.5,23.36-3.89,35.26-3.15a82.67,82.67,0,0,1,13.74,1.77c3.73.87,5.67,3.16,5,6s-3.1,4.18-6.77,3.49A118.5,118.5,0,0,0,80,86.4a26.74,26.74,0,0,0-9.76,3.17c-4.94,2.85-8.27,10.25-7.15,15.66.42,2,2,1.39,3.13,1.4,9.61.05,19.23,0,28.85,0,5.41,0,7.62,1.34,7.73,4.67.11,3.49-2.23,5-7.76,5Z"/><path class="cls-2" d="M98.2,26.34c11.67,0,22.66,11,22.72,22.7S110,71.74,98.29,71.86,75.24,60.67,75.39,49,86.52,26.33,98.2,26.34ZM85.38,48.92c-.06,8.18,4.58,12.92,12.68,13s12.76-4.56,12.87-12.42c.11-8.23-4.49-13.06-12.51-13.14C90.2,36.25,85.43,40.85,85.38,48.92Z"/><path class="cls-2" d="M33.59,94.15c-3.32,0-6.65.09-10,0-4.21-.14-6-2-6.17-6.18a37.28,37.28,0,0,1,1.2-10.57c1.59-6.18,5.69-10,11.55-12.07,9-3.16,18.36-3.54,27.76-3.2a100.87,100.87,0,0,1,10.26,1c4.21.6,6.23,2.8,5.64,5.79s-3.21,4.24-7.35,3.77a107.09,107.09,0,0,0-28.39.26c-6.39,1-9.6,3.72-10.42,8.14-.49,2.64.16,3.66,3,3.51,4.26-.22,8.55-.09,12.82,0,3.72,0,5.88,1.82,5.9,4.72S47.19,94,43.57,94.13C40.24,94.23,36.92,94.15,33.59,94.15Z"/><path class="cls-2" d="M53.46,58.46c-9.35-.11-18.4-9.37-18.16-18.58s9.21-18.06,18.38-18,18.43,9.4,18.17,18.57S62.57,58.57,53.46,58.46Zm.23-26.86A8.33,8.33,0,0,0,45,40.08a8.58,8.58,0,1,0,17.16.21A8.33,8.33,0,0,0,53.69,31.6Z"/><path class="cls-2" d="M129.12,129.67c-2.78-.45-4.37-2.17-4.71-5.18-.28-2.55,1.13-5.67-.82-7.51-1.79-1.68-4.78-.42-7.23-.65-3-.29-5.17-2.24-5.17-4.83s2.12-4.5,5.15-4.84c2.54-.28,5.69,1.18,7.48-.87,1.57-1.82.36-4.81.61-7.27.33-3.16,2.57-5.53,5.19-5.18,3.06.4,4.37,2.34,4.46,5.42.22,7.48.28,7.48,7.87,7.91,3.37.19,5.51,2,5.53,4.8s-2.13,4.56-5.47,4.88c-2.53.25-5.71-1.23-7.44.9-1.49,1.83-.35,4.81-.52,7.28C133.84,127.65,131.94,129.73,129.12,129.67Z"/></g></svg>