<svg id="Layer_1" data-name="Layer 1" xmlns="http://www.w3.org/2000/svg" viewBox="0 0 164.91 151.57"><defs><style>.cls-1{fill:#fff;}.cls-2{fill:#174c6f;}</style></defs><path class="cls-1" d="M119.48,63.59v-32H24.09v71.25H79.52a31.06,31.06,0,1,0,40-39.28Z"/><rect class="cls-1" x="47.41" y="22.59" width="10.46" height="18.06" rx="3.27"/><rect class="cls-1" x="83.71" y="22.59" width="10.46" height="18.06" rx="3.27"/><path class="cls-2" d="M89.46,62.24c.3-.19.6-.37.91-.54.76-.41,1.41-.77,2.08-1.11a1.46,1.46,0,0,0,.71-1.5c0-1.93,0-3.85,0-5.77,0-2.85,1.46-4.26,4.32-4.29,3.06,0,6.11,0,9.17,0,2.85,0,4.23,1.46,4.3,4.32,0,.64,0,1.28,0,1.92-.06,1,.34,1.38,1.35,1.47,2.16.2,2.16.26,2.16-2q0-8.86,0-17.74c0-2.08,0-2.09-2.16-2.09-6,0-12,0-18,0-1.21,0-1.65-.34-1.41-1.91a9.73,9.73,0,0,0,0-3c-.19-1.26.18-1.78,1.2-1.78,6.9,0,13.8-.08,20.7.07,3.56.08,5.88,2.52,6.33,6.07a72.48,72.48,0,0,1,.15,8.72c0,4.73,0,9.46-.09,14.19a1.78,1.78,0,0,0,1.29,1.88,36.3,36.3,0,0,1,18,15.6A37.88,37.88,0,0,1,143.8,82,30.25,30.25,0,0,1,145,89a36.28,36.28,0,0,1-31.66,39.74,35.1,35.1,0,0,1-18.09-2.46l-3.33-1.61a33,33,0,0,1-14.63-14.58c-1.28-2.54-2.78-3-5.34-3-14.78.12-29.57.06-44.36.06-5.19,0-7.77-2.61-7.78-7.85,0-4.24-.06-8.48,0-12.72l-.07-6.9q.06-21.67,0-43.33a8,8,0,0,1,8-8c6.36,0,12.71,0,19.07,0,1.43,0,2,.35,2,1.9,0,4.75,0,4.75-4.74,4.75-5.32,0-10.65,0-16,0-1.39,0-1.77.48-1.77,1.81,0,10.3,0,20.61,0,30.91v11c0,6.73,0,13.46,0,20.19,0,1.41.5,1.73,1.8,1.73q21.83-.06,43.63,0c1.45,0,1.74-.42,1.48-1.78A34.24,34.24,0,0,1,75.15,80c.29-.76.34-1.21-.54-1.62-1.54-.74-2.09-2.17-1.89-4a19.6,19.6,0,0,0,0-4c-.33-3.81.83-5.51,4.22-5.62,2.61-.09,5.23,0,7.84,0a3,3,0,0,0,2.37-.87A6.08,6.08,0,0,1,88.34,63Zm29,5.09a25.41,25.41,0,0,0-7.9-1.68,27.2,27.2,0,1,0,15,48.67,30.77,30.77,0,0,0,4.45-4.39,25.7,25.7,0,0,0,2.83-4.22,27,27,0,0,0,2.18-5.17A21.11,21.11,0,0,0,136,95a52.47,52.47,0,0,0-.09-5.61c.12-4.5-3.14-9.72-3.14-9.72a38.22,38.22,0,0,0-5.07-6.34A33.18,33.18,0,0,0,122.08,69Z"/><path class="cls-2" d="M60.45,78.91c-1.53,0-3.06,0-4.58,0a4.77,4.77,0,0,1-3-1,2.8,2.8,0,0,1-1.18-2.52c.08-2.26,0-4.53,0-6.79,0-2.07,1.09-3.45,3.13-3.65a58.17,58.17,0,0,1,11.35,0,3.32,3.32,0,0,1,3.13,3.21,29.32,29.32,0,0,1-.06,7.66c-.21,1.78-1.67,3-3.78,3.07-1.67.09-3.35,0-5,0Z"/><path class="cls-2" d="M48.54,85.08c-.08,1.86,0,3.74,0,5.61-.07,3.09-1.58,4.42-4.66,4.34s-6,0-9,0c-2.79,0-4.11-1.3-4.13-4l.45-8.43c2.67-2.28,5.78-1.39,8.7-1.6a37.6,37.6,0,0,1,7.56.5S48.56,81.84,48.54,85.08Z"/><path class="cls-2" d="M40.27,49.26c1.67,0,3.34,0,5,0,2.45,0,3.8,1.39,3.85,3.88q0,3,0,6c0,2.42-1.37,4-3.78,4-3.44.11-6.88.09-10.33,0a3.59,3.59,0,0,1-3.64-3.71,58.55,58.55,0,0,1,0-6.49c.13-2.49,1.61-3.75,4.16-3.77h4.72Z"/><path class="cls-2" d="M60.69,63.3c-1.62,0-3.24,0-4.87,0a3.75,3.75,0,0,1-4.06-3.91q-.09-3.09,0-6.2a3.73,3.73,0,0,1,3.93-3.89c3.3,0,6.59,0,9.89,0a3.72,3.72,0,0,1,4,4q.08,3,0,6.05a3.72,3.72,0,0,1-4,4C63.94,63.32,62.32,63.3,60.69,63.3Z"/><path class="cls-2" d="M81.78,63.3c-1.62,0-3.24,0-4.87,0a3.75,3.75,0,0,1-4.06-3.91q-.09-3.09,0-6.2a3.73,3.73,0,0,1,3.93-3.89c3.3,0,6.59,0,9.89,0a3.72,3.72,0,0,1,4,4c0,2,0,4,0,6.05a3.72,3.72,0,0,1-4,4C85,63.32,83.41,63.3,81.78,63.3Z"/><path class="cls-2" d="M40,78.7c-1.68,0-3.36,0-5,0-2.24,0-3.56-1.2-3.66-3.41-.12-2.41-.11-4.83,0-7.24a3.58,3.58,0,0,1,3.57-3.31c3.49-.08,7-.11,10.49,0,2.57.1,3.91,2.33,3.59,5-.21,1.78.17,3.6-.07,5.43-.3,2.34-1.43,3.49-3.84,3.53C43.38,78.72,41.7,78.7,40,78.7Z"/><path class="cls-2" d="M60.28,80.94c1.63,0,3.26,0,4.88,0A3.53,3.53,0,0,1,69,84.71c0,2.17.05,4.34,0,6.5a3.5,3.5,0,0,1-3.73,3.72q-5.1.07-10.19,0a3.49,3.49,0,0,1-3.68-3.76q0-3.24,0-6.5A3.48,3.48,0,0,1,55.11,81C56.83,80.9,58.56,80.94,60.28,80.94Z"/><path class="cls-2" d="M70.84,34.92c-4.23,0-8.46,0-12.69,0-1.28,0-1.81-.39-1.72-1.69a22,22,0,0,0,0-3.25c-.09-1.28.42-1.73,1.7-1.72,4.63,0,9.25,0,13.88,0,3.79,0,7.58,0,11.37,0,1.31,0,1.93.36,1.82,1.75a27.55,27.55,0,0,0,0,3.4c0,1.11-.3,1.55-1.51,1.52-4.28-.07-8.57,0-12.85,0Z"/><path class="cls-2" d="M91.46,32.44c0,1.62,0,3.24,0,4.86a2.66,2.66,0,0,1-2.41,2.83,2.41,2.41,0,0,1-2.54-2.5c-.12-3.48-.12-7-.05-10.46a2.47,2.47,0,0,1,2.48-2.43,2.43,2.43,0,0,1,2.5,2.54c.06,1.72,0,3.44,0,5.16Z"/><path class="cls-2" d="M55.08,32.31c0,1.62,0,3.24,0,4.87s-1,2.75-2.43,2.74a2.44,2.44,0,0,1-2.44-2.73c0-3.3,0-6.59,0-9.89,0-1.71,1-2.76,2.42-2.76a2.5,2.5,0,0,1,2.45,2.75C55.11,29,55.08,30.63,55.08,32.31Z"/><path class="cls-2" d="M101.57,92.6A6.55,6.55,0,0,1,108.09,86a2,2,0,0,0,2.1-1.4c1.43-3.35,3.37-6.46,4.71-9.85.39-1,2.1-1.4,3.31-.87,1.52.66,2.25,2,1.71,3.24a103.39,103.39,0,0,1-4.68,9.65c-.71,1.28-1.34,2.54-.4,4a1.58,1.58,0,0,1,.22,1c-.32,2,.93,2.8,2.53,3.54,3.94,1.8,7.81,3.75,11.7,5.66a3,3,0,0,1-2.68,5.39q-7-3.41-14.08-6.86a3.67,3.67,0,0,0-2.67-.22A6.69,6.69,0,0,1,101.57,92.6Z"/></svg>